<?xml version="1.0" encoding="UTF-8" standalone="no"?><!-- Generator: Gravit.io --><svg xmlns="http://www.w3.org/2000/svg" xmlns:xlink="http://www.w3.org/1999/xlink" style="isolation:isolate" viewBox="0 0 260 260" width="260pt" height="260pt"><defs><clipPath id="_clipPath_ISChTDQjn8jgfEmhSv9FY5UucLljFyNz"><rect width="260" height="260"/></clipPath></defs><g clip-path="url(#_clipPath_ISChTDQjn8jgfEmhSv9FY5UucLljFyNz)"><rect width="260" height="260" style="fill:rgb(0,0,0)" fill-opacity="0"/><g><linearGradient id="_lgradient_0" x1="0" y1="0" x2="1" y2="0" gradientTransform="matrix(103.115,0,0,93.308,5.98,191.811)" gradientUnits="userSpaceOnUse"><stop offset="0%" stop-opacity="1" style="stop-color:rgb(217,232,255)"/><stop offset="100%" stop-opacity="1" style="stop-color:rgb(181,211,255)"/></linearGradient><path d=" M 41.857 203.798 L 8.704 186.466 C 6.198 185.156 5.444 183.237 6.348 181.392 L 44.154 201.156 C 43.39 202.035 42.623 202.915 41.857 203.798 Z " fill="url(#_lgradient_0)"/><path d=" M 86.491 95.365 L 86.491 213.455 C 81.295 216.175 73.443 216.472 68.945 214.11 L 68.945 96.02 L 77.52 90.749 L 86.491 95.365 Z " fill="rgb(201,223,255)"/><path d=" M 115.084 77.169 L 115.061 195.575 C 115.061 197.39 113.616 199.287 110.773 200.764 L 110.773 82.672 L 115.084 77.169 Z " fill="rgb(145,190,255)"/><path d=" M 3.04 61.573 L 3.04 179.663 C 1.037 178.61 0.035 177.196 0.011 175.742 L 0.011 57.691 L 3.04 61.573 Z " fill="rgb(181,211,255)"/><path d=" M 68.935 96.022 L 3.04 61.573 C -1.463 59.219 -0.898 55.112 4.301 52.395 L 28.574 39.714 C 33.773 36.997 41.638 36.703 46.14 39.055 L 112.036 73.505 C 116.538 75.857 115.973 79.967 110.774 82.681 L 86.501 95.363 C 81.302 98.079 73.437 98.374 68.935 96.022 Z " fill="rgb(230,247,255)"/><path d=" M 62.116 82.393 L 20.439 60.596 C 15.937 58.241 16.501 54.135 21.7 51.418 L 35.392 44.263 C 40.591 41.548 48.456 41.252 52.959 43.606 L 94.636 65.402 C 99.139 67.754 98.575 71.863 93.375 74.578 L 79.684 81.734 C 74.484 84.451 66.619 84.745 62.116 82.393 Z " fill="rgb(242,251,255)"/><path d=" M 86.501 213.451 L 86.501 95.363 L 110.774 82.681 L 110.774 200.772 L 86.501 213.451 Z " fill="rgb(181,211,255)"/><path d=" M 3.04 61.573 L 3.04 179.661 L 68.935 214.11 L 68.935 96.022 L 3.04 61.573 Z " fill="rgb(217,232,255)"/><path d=" M 7.7 174.195 L 7.7 74.521 C 7.7 72.015 10.7 70.447 13.1 71.703 L 61.372 96.94 C 63.169 97.877 64.275 99.611 64.275 101.489 L 64.275 201.162 C 64.275 203.669 61.274 205.238 58.875 203.983 L 10.602 178.744 C 8.806 177.804 7.7 176.072 7.7 174.195 Z " fill="rgb(241,241,241)"/><path d=" M 12.659 119.307 L 12.659 124.464 L 11.43 123.823 L 11.43 112.361 L 12.659 113.003 L 12.659 118.16 L 15.367 119.576 L 15.367 114.419 L 16.596 115.06 L 16.596 126.522 L 15.367 125.88 L 15.367 120.721 L 12.659 119.307 Z " fill="rgb(60,60,158)"/><path d=" M 19.265 124.511 L 21.722 125.794 L 20.478 118.53 L 19.265 124.511 Z  M 19.108 125.525 L 18.682 127.612 L 17.548 127.018 L 19.658 116.661 L 21.439 117.591 L 23.55 130.154 L 22.321 129.511 L 21.896 126.981 L 19.108 125.525 Z " fill="rgb(60,60,158)"/><path d=" M 25.603 131.225 L 24.499 130.649 L 24.499 119.189 L 26.059 120.005 L 28.611 129.623 L 28.611 121.337 L 29.699 121.904 L 29.699 133.365 L 28.422 132.698 L 25.603 121.961 L 25.603 131.225 Z " fill="rgb(60,60,158)"/><path d=" M 33.533 134.207 C 34.416 134.668 34.84 134.319 34.84 133.269 L 34.84 127.377 C 34.84 126.327 34.416 125.533 33.517 125.064 L 32.193 124.372 L 32.193 133.509 L 33.533 134.207 Z  M 33.548 123.917 C 35.266 124.815 36.054 126.308 36.054 128.075 L 36.054 133.854 C 36.054 135.607 35.266 136.276 33.548 135.378 L 30.965 134.028 L 30.965 122.567 L 33.548 123.917 Z " fill="rgb(60,60,158)"/><path d=" M 16.203 132.071 L 16.203 132.383 L 15.038 131.775 L 15.038 131.396 C 15.038 130.366 14.658 129.562 13.776 129.099 C 12.895 128.64 12.517 129.048 12.517 130.064 C 12.517 132.634 16.218 134.815 16.218 138.038 C 16.218 139.774 15.416 140.484 13.729 139.603 C 12.044 138.724 11.256 137.181 11.256 135.447 L 11.256 134.791 L 12.407 135.392 L 12.407 136.114 C 12.407 137.145 12.815 137.963 13.698 138.424 C 14.58 138.885 14.99 138.495 14.99 137.463 C 14.99 134.907 11.304 132.736 11.304 129.511 C 11.304 127.744 12.091 127.057 13.746 127.922 C 15.416 128.793 16.203 130.335 16.203 132.071 Z " fill="rgb(60,60,158)"/><path d=" M 18.697 138.677 L 21.154 139.96 L 19.909 132.697 L 18.697 138.677 Z  M 18.539 139.693 L 18.114 141.778 L 16.979 141.188 L 19.09 130.827 L 20.871 131.759 L 22.982 144.323 L 21.753 143.681 L 21.327 141.151 L 18.539 139.693 Z " fill="rgb(60,60,158)"/><path d=" M 25.036 145.395 L 23.933 144.819 L 23.933 133.36 L 25.493 134.174 L 28.045 143.793 L 28.045 135.507 L 29.132 136.076 L 29.132 147.536 L 27.856 146.869 L 25.036 136.129 L 25.036 145.395 Z " fill="rgb(60,60,158)"/><path d=" M 31.625 137.379 L 31.625 148.838 L 30.397 148.197 L 30.397 136.735 L 31.625 137.379 Z " fill="rgb(60,60,158)"/><path d=" M 34.479 150.331 L 34.479 140.033 L 32.446 138.969 L 32.446 137.808 L 37.725 140.564 L 37.725 141.727 L 35.691 140.664 L 35.691 150.962 L 34.479 150.331 Z " fill="rgb(60,60,158)"/><path d=" M 39.793 141.645 L 39.793 153.106 L 38.564 152.465 L 38.564 141.004 L 39.793 141.645 Z " fill="rgb(60,60,158)"/><path d=" M 45.892 156.292 L 40.882 153.675 L 40.882 152.528 L 44.664 145.352 L 41.056 143.467 L 41.056 142.306 L 45.923 144.848 L 45.923 145.994 L 42.128 153.163 L 45.892 155.129 L 45.892 156.292 Z " fill="rgb(60,60,158)"/><path d=" M 50.953 152.551 L 50.953 153.697 L 48.258 152.29 L 48.258 156.366 L 51.568 158.094 L 51.568 159.256 L 47.031 156.886 L 47.031 145.427 L 51.568 147.796 L 51.568 148.958 L 48.258 147.231 L 48.258 151.145 L 50.953 152.551 Z " fill="rgb(60,60,158)"/><path d=" M 54.849 154.915 C 55.824 155.423 56.407 155.401 56.407 154.156 L 56.407 153.059 C 56.407 152.027 56.046 151.3 55.132 150.821 L 53.935 150.195 L 53.935 154.434 L 54.849 154.915 Z  M 55.162 149.676 C 56.897 150.582 57.621 151.876 57.621 153.579 L 57.621 154.513 C 57.621 155.772 57.196 156.335 56.25 156.153 C 57.258 156.99 57.637 158.04 57.637 159.267 L 57.637 161.052 C 57.637 161.56 57.652 162.043 57.857 162.543 L 56.613 161.892 C 56.472 161.492 56.407 161.162 56.407 160.395 L 56.407 158.593 C 56.407 157.3 55.824 156.586 54.802 156.052 L 53.935 155.597 L 53.935 160.493 L 52.706 159.852 L 52.706 148.391 L 55.162 149.676 Z " fill="rgb(60,60,158)"/><path d=" M 64.263 101.479 L 64.263 155.46 C 52.822 128.807 31.92 103.589 7.708 89.311 L 7.708 74.531 C 7.708 72.022 10.691 70.439 13.091 71.707 L 61.373 96.946 C 63.169 97.873 64.263 99.602 64.263 101.479 Z " fill="rgb(4,167,234)"/><path d=" M 45.888 102.458 L 22.758 90.374 C 21.984 89.97 21.356 88.886 21.356 87.95 L 21.356 86.157 C 21.356 85.222 21.984 84.79 22.758 85.198 L 45.888 97.281 C 46.662 97.685 47.291 98.772 47.291 99.705 L 47.291 101.498 C 47.291 102.434 46.662 102.864 45.888 102.458 Z " fill="rgb(77,77,77)"/><path d=" M 35.923 189.656 L 25.344 184.128 C 24.989 183.942 24.703 183.445 24.703 183.02 L 24.703 182.198 C 24.703 181.77 24.989 181.572 25.344 181.758 L 35.923 187.286 C 36.278 187.47 36.565 187.967 36.565 188.396 L 36.565 189.216 C 36.565 189.644 36.278 189.84 35.923 189.656 Z " fill="rgb(60,60,158)"/><path d=" M 107.746 71.263 L 97.161 71.263 C 98.327 69.141 97.523 66.911 94.636 65.402 L 81.141 58.345 L 81.141 57.36 L 107.746 71.263 Z " fill="rgb(150,196,255)"/><path d=" M 97.161 71.263 L 57.995 71.263 L 57.995 71.224 C 58.04 71.224 58.087 71.224 58.132 71.224 C 64.033 71.224 69.924 70.053 74.411 67.709 C 78.937 65.345 81.178 62.238 81.139 59.129 L 81.141 59.129 L 81.141 58.345 L 94.636 65.402 C 97.523 66.911 98.327 69.141 97.161 71.263 Z " fill="rgb(158,199,255)"/><linearGradient id="_lgradient_1" x1="0" y1="0" x2="1" y2="0" gradientTransform="matrix(46.307,0,0,41.903,34.834,55.322)" gradientUnits="userSpaceOnUse"><stop offset="0%" stop-opacity="1" style="stop-color:rgb(217,232,255)"/><stop offset="100%" stop-opacity="1" style="stop-color:rgb(181,211,255)"/></linearGradient><path d=" M 58.132 71.224 C 58.087 71.224 58.04 71.224 57.995 71.224 C 52.09 71.206 46.185 70.016 41.666 67.654 C 37.057 65.247 34.782 62.081 34.839 58.935 L 34.839 58.237 C 35.979 59.288 37.399 60.279 39.121 61.183 C 44.256 63.862 50.981 65.2 57.693 65.2 C 64.351 65.2 70.995 63.882 76.054 61.248 C 78.198 60.13 79.899 58.843 81.134 57.495 L 81.134 55.449 C 81.137 55.445 81.139 55.444 81.141 55.442 L 81.141 57.354 L 81.141 57.36 L 81.141 58.345 L 81.141 59.129 L 81.139 59.129 C 81.178 62.238 78.937 65.345 74.411 67.709 C 69.924 70.053 64.033 71.224 58.132 71.224 Z " fill="url(#_lgradient_1)"/><path d=" M 34.839 58.237 C 34.837 58.235 34.835 58.233 34.833 58.231 L 34.833 56.191 C 34.834 56.191 34.836 56.193 34.838 56.195 L 34.839 58.237 Z " fill="rgb(158,199,255)"/><linearGradient id="_lgradient_2" x1="0" y1="0" x2="1" y2="0" gradientTransform="matrix(46.307,0,0,41.903,34.834,55.322)" gradientUnits="userSpaceOnUse"><stop offset="0%" stop-opacity="1" style="stop-color:rgb(141,184,255)"/><stop offset="100%" stop-opacity="1" style="stop-color:rgb(118,167,255)"/></linearGradient><path d=" M 57.693 65.2 C 50.981 65.2 44.256 63.862 39.121 61.183 C 37.399 60.279 35.979 59.288 34.839 58.237 L 34.838 56.195 C 35.981 57.246 37.41 58.235 39.127 59.133 C 44.264 61.817 50.99 63.16 57.701 63.16 C 64.357 63.16 70.999 61.838 76.061 59.194 C 78.208 58.072 79.899 56.805 81.134 55.449 L 81.134 57.495 C 79.899 58.843 78.198 60.13 76.054 61.248 C 70.995 63.882 64.351 65.2 57.693 65.2 Z " fill="url(#_lgradient_2)"/><path d=" M 80.752 51.33 C 79.933 53.629 77.824 55.842 74.408 57.625 C 65.398 62.334 50.739 62.311 41.661 57.562 C 32.595 52.827 32.554 45.175 41.564 40.465 C 50.573 35.756 65.232 35.779 74.311 40.514 C 76.769 41.797 78.559 43.29 79.697 44.887 C 81.156 46.958 81.517 49.196 80.752 51.33 Z " fill="rgb(163,163,163)"/><linearGradient id="_lgradient_3" x1="0" y1="0" x2="1" y2="0" gradientTransform="matrix(52.232,0,0,47.264,31.421,36.589)" gradientUnits="userSpaceOnUse"><stop offset="0%" stop-opacity="1" style="stop-color:rgb(230,230,230)"/><stop offset="14.881%" stop-opacity="1" style="stop-color:rgb(242,242,242)"/><stop offset="24.404799999999998%" stop-opacity="1" style="stop-color:rgb(204,204,204)"/><stop offset="64.881%" stop-opacity="1" style="stop-color:rgb(204,204,204)"/><stop offset="71.627%" stop-opacity="1" style="stop-color:rgb(230,230,230)"/><stop offset="100%" stop-opacity="1" style="stop-color:rgb(204,204,204)"/></linearGradient><path d=" M 57.701 63.16 C 50.99 63.16 44.264 61.817 39.127 59.133 C 37.41 58.235 35.981 57.246 34.838 56.195 C 34.836 56.193 34.834 56.191 34.833 56.191 C 32.519 54.059 31.384 51.675 31.427 49.298 L 31.426 46.336 L 31.425 38.541 L 31.422 20.968 L 31.424 20.97 C 31.484 23.341 32.722 25.711 35.136 27.815 C 35.069 27.762 35.004 27.707 34.943 27.653 C 34.94 27.649 34.936 27.645 34.932 27.643 L 34.932 33.366 L 34.932 33.366 C 34.932 36.952 37.348 41.105 40.307 42.652 C 40.378 42.69 40.449 42.725 40.519 42.758 C 41.197 43.082 41.844 43.235 42.436 43.235 C 44.343 43.235 45.683 41.644 45.683 38.992 L 45.683 32.998 C 43.321 32.358 41.095 31.523 39.113 30.493 C 37.802 29.793 36.643 29.061 35.666 28.274 L 35.666 28.257 C 36.647 29.043 37.799 29.789 39.121 30.479 C 44.265 33.17 50.997 34.516 57.713 34.516 C 64.365 34.516 71.002 33.194 76.058 30.55 C 79.91 28.539 82.29 26.044 83.214 23.453 C 83.489 22.686 83.634 21.907 83.652 21.126 L 83.652 49.516 L 83.651 49.516 C 83.676 51.546 82.84 53.576 81.141 55.442 C 81.139 55.444 81.137 55.445 81.134 55.449 C 79.899 56.805 78.208 58.072 76.061 59.194 C 70.999 61.838 64.357 63.16 57.701 63.16 Z  M 83.652 20.795 C 83.652 20.764 83.651 20.734 83.65 20.703 L 83.652 20.703 L 83.652 20.795 Z " fill-rule="evenodd" fill="url(#_lgradient_3)"/><path d=" M 83.214 23.453 C 82.29 26.044 79.91 28.539 76.058 30.55 C 65.896 35.863 49.361 35.836 39.121 30.479 C 28.896 25.138 28.85 16.509 39.012 11.195 C 49.174 5.883 65.709 5.913 75.948 11.252 C 78.72 12.7 80.741 14.385 82.025 16.183 C 83.669 18.522 84.076 21.044 83.214 23.453 Z " fill="rgb(163,163,163)"/><linearGradient id="_lgradient_4" x1="0" y1="0" x2="1" y2="0" gradientTransform="matrix(52.232,0,0,47.264,31.421,18.272)" gradientUnits="userSpaceOnUse"><stop offset="0%" stop-opacity="1" style="stop-color:rgb(230,230,230)"/><stop offset="14.881%" stop-opacity="1" style="stop-color:rgb(242,242,242)"/><stop offset="24.404799999999998%" stop-opacity="1" style="stop-color:rgb(204,204,204)"/><stop offset="64.881%" stop-opacity="1" style="stop-color:rgb(204,204,204)"/><stop offset="71.627%" stop-opacity="1" style="stop-color:rgb(230,230,230)"/><stop offset="100%" stop-opacity="1" style="stop-color:rgb(204,204,204)"/></linearGradient><path d=" M 57.7 33.755 C 50.988 33.755 44.264 32.413 39.127 29.728 C 34.157 27.133 31.593 23.755 31.434 20.362 C 31.426 20.207 31.424 20.05 31.427 19.895 L 31.422 13.739 L 31.424 13.739 C 31.511 17.182 34.078 20.616 39.121 23.251 L 39.121 23.251 C 39.159 23.272 39.196 23.292 39.235 23.312 C 39.245 23.316 39.257 23.321 39.267 23.327 C 39.285 23.337 39.302 23.345 39.319 23.355 C 44.435 25.973 51.076 27.286 57.701 27.288 C 57.705 27.288 57.708 27.288 57.713 27.288 L 57.713 27.288 L 57.713 27.288 C 57.717 27.288 57.719 27.288 57.724 27.288 C 64.27 27.286 70.798 26.005 75.822 23.445 C 75.901 23.404 75.98 23.363 76.058 23.323 L 76.058 23.323 C 79.91 21.309 82.29 18.816 83.214 16.223 C 83.217 16.215 83.221 16.207 83.224 16.197 C 83.492 15.438 83.635 14.669 83.652 13.896 L 83.652 20.112 L 83.651 20.112 C 83.652 20.258 83.65 20.405 83.643 20.55 C 83.479 23.91 80.954 27.237 76.061 29.791 C 70.999 32.433 64.356 33.755 57.7 33.755 Z  M 83.652 13.565 C 83.652 13.535 83.651 13.504 83.65 13.475 L 83.652 13.473 L 83.652 13.565 Z " fill-rule="evenodd" fill="url(#_lgradient_4)"/><path d=" M 83.214 16.223 C 82.29 18.816 79.91 21.309 76.058 23.323 C 65.896 28.635 49.361 28.606 39.121 23.251 C 28.896 17.91 28.85 9.281 39.012 3.969 C 49.174 -1.347 65.709 -1.317 75.948 4.024 C 78.72 5.47 80.741 7.156 82.025 8.953 C 83.669 11.293 84.076 13.814 83.214 16.223 Z " fill="rgb(242,242,242)"/><linearGradient id="_lgradient_5" x1="0" y1="0" x2="1" y2="0" gradientTransform="matrix(52.232,0,0,47.264,31.421,18.272)" gradientUnits="userSpaceOnUse"><stop offset="0%" stop-opacity="1" style="stop-color:rgb(255,255,255)"/><stop offset="14.64479365079365%" stop-opacity="1" style="stop-color:rgb(255,255,255)"/><stop offset="14.881%" stop-opacity="1" style="stop-color:rgb(255,255,255)"/><stop offset="24.25362857142857%" stop-opacity="1" style="stop-color:rgb(255,255,255)"/><stop offset="25.047279365079365%" stop-opacity="1" style="stop-color:rgb(255,255,255)"/><stop offset="64.881%" stop-opacity="1" style="stop-color:rgb(255,255,255)"/><stop offset="64.98807936507937%" stop-opacity="1" style="stop-color:rgb(255,255,255)"/><stop offset="71.17663492063492%" stop-opacity="1" style="stop-color:rgb(255,255,255)"/><stop offset="71.627%" stop-opacity="1" style="stop-color:rgb(255,255,255)"/><stop offset="100%" stop-opacity="1" style="stop-color:rgb(255,255,255)"/></linearGradient><path d=" M 57.713 27.288 C 57.708 27.288 57.705 27.288 57.701 27.288 C 57.705 27.288 57.708 27.288 57.713 27.288 L 57.713 27.288 Z  M 57.724 27.288 C 64.269 27.286 70.799 26.005 75.822 23.445 C 70.798 26.005 64.27 27.286 57.724 27.288 Z  M 39.319 23.355 C 39.302 23.345 39.285 23.337 39.267 23.327 C 39.285 23.337 39.302 23.345 39.319 23.355 Z  M 76.058 23.323 L 76.058 23.323 C 79.91 21.309 82.29 18.816 83.214 16.223 C 83.217 16.215 83.22 16.207 83.224 16.197 C 83.221 16.207 83.217 16.215 83.214 16.223 C 82.29 18.816 79.91 21.309 76.058 23.323 L 76.058 23.323 Z  M 39.235 23.312 C 39.196 23.292 39.159 23.272 39.121 23.251 L 39.121 23.251 L 39.121 23.251 C 39.159 23.272 39.196 23.292 39.235 23.312 Z " fill-rule="evenodd" fill="url(#_lgradient_5)"/><path d=" M 57.713 27.288 C 57.708 27.288 57.705 27.288 57.701 27.288 C 51.077 27.286 44.434 25.973 39.319 23.355 C 39.302 23.345 39.285 23.337 39.267 23.327 C 39.257 23.321 39.245 23.316 39.235 23.312 C 39.196 23.292 39.159 23.272 39.121 23.251 L 39.121 23.251 C 33.59 20.362 31.065 16.511 31.495 12.743 C 31.855 15.977 34.379 19.163 39.121 21.638 C 44.265 24.33 50.997 25.675 57.713 25.675 C 64.365 25.675 71.002 24.353 76.058 21.709 C 79.91 19.698 82.29 17.203 83.214 14.61 C 83.404 14.081 83.508 13.543 83.574 13.006 C 83.682 14.073 83.595 15.146 83.224 16.197 C 83.22 16.207 83.217 16.215 83.214 16.223 C 82.29 18.816 79.91 21.309 76.058 23.323 L 76.058 23.323 C 75.98 23.363 75.901 23.404 75.822 23.445 C 70.799 26.005 64.269 27.286 57.724 27.288 C 57.719 27.288 57.717 27.288 57.713 27.288 Z " fill="rgb(255,255,255)"/><path d=" M 45.683 32.998 L 45.683 38.992 C 45.683 42.552 43.267 44.2 40.307 42.652 C 37.348 41.105 34.932 36.952 34.932 33.366 L 34.932 27.643 C 36.045 28.674 37.457 29.608 39.113 30.493 C 41.095 31.523 43.321 32.358 45.683 32.998 Z " fill="rgb(204,204,204)"/><linearGradient id="_lgradient_6" x1="0" y1="0" x2="1" y2="0" gradientTransform="matrix(52.232,0,0,47.264,31.421,36.589)" gradientUnits="userSpaceOnUse"><stop offset="0%" stop-opacity="1" style="stop-color:rgb(255,255,255)"/><stop offset="14.64479365079365%" stop-opacity="1" style="stop-color:rgb(255,255,255)"/><stop offset="14.881%" stop-opacity="1" style="stop-color:rgb(255,255,255)"/><stop offset="24.25362857142857%" stop-opacity="1" style="stop-color:rgb(255,255,255)"/><stop offset="25.047279365079365%" stop-opacity="1" style="stop-color:rgb(255,255,255)"/><stop offset="64.881%" stop-opacity="1" style="stop-color:rgb(255,255,255)"/><stop offset="64.98807936507937%" stop-opacity="1" style="stop-color:rgb(255,255,255)"/><stop offset="71.17663492063492%" stop-opacity="1" style="stop-color:rgb(255,255,255)"/><stop offset="71.627%" stop-opacity="1" style="stop-color:rgb(255,255,255)"/><stop offset="100%" stop-opacity="1" style="stop-color:rgb(255,255,255)"/></linearGradient><path d=" M 40.519 42.758 C 40.449 42.725 40.378 42.69 40.307 42.652 C 37.348 41.105 34.932 36.952 34.932 33.366 L 34.932 33.366 C 34.932 36.952 37.348 41.105 40.307 42.652 C 40.378 42.69 40.448 42.725 40.519 42.758 Z  M 35.666 28.274 C 35.413 28.07 35.172 27.864 34.943 27.653 C 35.004 27.707 35.069 27.762 35.136 27.815 C 35.307 27.964 35.483 28.112 35.666 28.257 L 35.666 28.274 Z " fill-rule="evenodd" fill="url(#_lgradient_6)"/><path d=" M 35.666 28.257 C 35.483 28.112 35.307 27.964 35.136 27.815 C 35.309 27.951 35.498 28.082 35.666 28.219 L 35.666 28.257 Z " fill="rgb(255,255,255)"/><path d=" M 42.43 43.233 C 41.84 43.233 41.195 43.08 40.519 42.758 C 40.448 42.725 40.378 42.69 40.307 42.652 C 37.348 41.105 34.932 36.952 34.932 33.366 L 34.932 27.643 C 34.936 27.645 34.94 27.649 34.943 27.653 C 35.172 27.864 35.413 28.07 35.666 28.274 L 35.666 33.011 C 35.666 36.597 38.082 40.75 41.042 42.295 C 41.79 42.688 42.501 42.87 43.148 42.87 C 43.493 42.87 43.82 42.819 44.124 42.719 C 43.642 43.054 43.067 43.233 42.43 43.233 Z " fill="rgb(255,255,255)"/><path d=" M 111.357 80.373 L 111.357 80.667 L 111.334 80.392 L 111.357 80.373 Z " fill="rgb(145,190,255)"/><path d=" M 21.921 186.696 L 5.777 178.261 L 5.777 66.35 L 21.921 74.784 L 21.921 76.314 L 13.1 71.703 C 12.572 71.426 12.016 71.287 11.468 71.263 C 11.411 71.261 11.354 71.259 11.297 71.259 C 10.817 71.259 10.348 71.35 9.916 71.514 C 8.654 71.993 7.7 73.109 7.7 74.521 L 7.7 174.195 C 7.7 176.072 8.806 177.804 10.602 178.744 L 21.921 184.661 L 21.921 186.696 Z " fill="rgb(239,245,255)"/><path d=" M 21.921 184.661 L 10.602 178.744 C 8.806 177.804 7.7 176.072 7.7 174.195 L 7.7 74.521 C 7.7 73.109 8.654 71.993 9.916 71.514 C 8.657 71.995 7.708 73.117 7.708 74.531 L 7.708 89.311 C 12.598 92.195 17.352 95.524 21.921 99.221 L 21.921 120.459 L 21.439 117.591 L 19.658 116.661 L 17.548 127.018 L 18.682 127.612 L 19.108 125.525 L 21.896 126.981 L 21.921 127.134 L 21.921 138.008 L 20.871 131.759 L 19.09 130.827 L 16.979 141.188 L 18.114 141.778 L 18.539 139.693 L 21.327 141.151 L 21.753 143.681 L 21.921 143.769 L 21.921 184.661 Z  M 11.256 134.791 L 11.256 135.447 C 11.256 137.181 12.044 138.724 13.729 139.603 C 14.221 139.86 14.639 139.982 14.982 139.982 C 15.816 139.982 16.218 139.268 16.218 138.038 C 16.218 134.815 12.517 132.634 12.517 130.064 C 12.517 129.329 12.715 128.913 13.158 128.913 C 13.327 128.913 13.533 128.974 13.776 129.099 C 14.658 129.562 15.038 130.366 15.038 131.396 L 15.038 131.775 L 16.203 132.383 L 16.203 132.071 C 16.203 130.335 15.416 128.793 13.746 127.922 C 13.263 127.669 12.855 127.549 12.518 127.549 C 11.699 127.549 11.304 128.26 11.304 129.511 C 11.304 132.736 14.99 134.907 14.99 137.463 C 14.99 138.204 14.777 138.616 14.329 138.616 C 14.155 138.616 13.945 138.554 13.698 138.424 C 12.815 137.963 12.407 137.145 12.407 136.114 L 12.407 135.392 L 11.256 134.791 Z  M 12.659 119.307 L 15.367 120.721 L 15.367 125.88 L 16.596 126.522 L 16.596 115.06 L 15.367 114.419 L 15.367 119.576 L 12.659 118.16 L 12.659 113.003 L 11.43 112.361 L 11.43 123.823 L 12.659 124.464 L 12.659 119.307 Z  M 21.154 139.96 L 18.697 138.677 L 19.909 132.697 L 21.154 139.96 Z  M 21.722 125.794 L 19.265 124.511 L 20.478 118.53 L 21.722 125.794 Z  M 21.921 76.322 L 13.091 71.707 C 12.566 71.428 12.012 71.289 11.468 71.263 C 12.016 71.287 12.572 71.426 13.1 71.703 L 21.921 76.314 L 21.921 76.322 Z " fill="rgb(249,249,249)"/><path d=" M 16.596 126.522 L 15.367 125.88 L 15.367 120.721 L 12.659 119.307 L 12.659 124.464 L 11.43 123.823 L 11.43 112.361 L 12.659 113.003 L 12.659 118.16 L 15.367 119.576 L 15.367 114.419 L 16.596 115.06 L 16.596 126.522 Z " fill="rgb(173,173,214)"/><path d=" M 18.682 127.612 L 17.548 127.018 L 19.658 116.661 L 21.439 117.591 L 21.921 120.459 L 21.921 127.134 L 21.896 126.981 L 19.108 125.525 L 18.682 127.612 Z  M 20.478 118.53 L 19.265 124.511 L 21.722 125.794 L 20.478 118.53 Z " fill="rgb(173,173,214)"/><path d=" M 14.982 139.982 C 14.639 139.982 14.221 139.86 13.729 139.603 C 12.044 138.724 11.256 137.181 11.256 135.447 L 11.256 134.791 L 12.407 135.392 L 12.407 136.114 C 12.407 137.145 12.815 137.963 13.698 138.424 C 13.945 138.554 14.155 138.616 14.329 138.616 C 14.777 138.616 14.99 138.204 14.99 137.463 C 14.99 134.907 11.304 132.736 11.304 129.511 C 11.304 128.26 11.699 127.549 12.518 127.549 C 12.855 127.549 13.263 127.669 13.746 127.922 C 15.416 128.793 16.203 130.335 16.203 132.071 L 16.203 132.383 L 15.038 131.775 L 15.038 131.396 C 15.038 130.366 14.658 129.562 13.776 129.099 C 13.533 128.974 13.327 128.913 13.158 128.913 C 12.715 128.913 12.517 129.329 12.517 130.064 C 12.517 132.634 16.218 134.815 16.218 138.038 C 16.218 139.268 15.816 139.982 14.982 139.982 Z " fill="rgb(173,173,214)"/><path d=" M 21.921 143.769 L 21.753 143.681 L 21.327 141.151 L 18.539 139.693 L 18.114 141.778 L 16.979 141.188 L 19.09 130.827 L 20.871 131.759 L 21.921 138.008 L 21.921 143.769 Z  M 19.909 132.697 L 18.697 138.677 L 21.154 139.96 L 19.909 132.697 Z " fill="rgb(173,173,214)"/><path d=" M 21.921 99.221 C 17.352 95.524 12.598 92.195 7.708 89.311 L 7.708 74.531 C 7.708 73.117 8.657 71.995 9.916 71.514 C 10.348 71.35 10.817 71.259 11.297 71.259 C 11.354 71.259 11.411 71.261 11.468 71.263 C 12.012 71.289 12.566 71.428 13.091 71.707 L 21.921 76.322 L 21.921 85.094 C 21.578 85.224 21.356 85.6 21.356 86.157 L 21.356 87.95 C 21.356 88.505 21.578 89.115 21.921 89.604 L 21.921 99.221 Z " fill="rgb(150,218,246)"/><path d=" M 21.921 89.604 C 21.578 89.115 21.356 88.505 21.356 87.95 L 21.356 86.157 C 21.356 85.6 21.578 85.224 21.921 85.094 L 21.921 89.604 Z " fill="rgb(180,180,180)"/><path d=" M 249.589 158.783 L 195.953 130.796 L 206.365 125.356 L 260 153.344 L 249.589 158.783 Z " fill="rgb(242,242,242)"/><path d=" M 195.953 130.796 L 195.953 132.283 L 249.589 160.27 L 249.589 158.783 L 195.953 130.796 Z " fill="rgb(230,230,230)"/><path d=" M 260 153.344 L 260 154.832 L 249.589 160.27 L 249.589 158.783 L 260 153.344 Z " fill="rgb(204,204,204)"/><path d=" M 249.981 159.691 C 249.786 160.674 249.604 161.717 249.25 162.661 C 248.919 163.528 248.689 164.428 248.266 165.278 C 247.774 166.26 247.421 167.294 246.872 168.255 C 246.3 169.269 245.706 170.264 245.11 171.268 C 244.495 172.312 243.968 173.355 243.304 174.379 C 242.563 175.497 241.796 176.603 241.007 177.69 C 238.893 180.587 236.606 183.379 234.17 186.058 C 229.759 190.911 224.866 195.389 219.666 199.528 C 206.209 210.234 190.777 218.674 175.174 226.64 C 160.209 234.284 144.937 241.587 128.727 246.738 C 126.291 247.517 123.845 248.239 121.364 248.909 C 119.101 249.521 116.882 250.245 114.619 250.928 C 113.453 251.271 112.276 251.612 111.088 251.901 C 107.554 252.77 103.953 253.452 100.33 253.929 C 93.105 254.89 85.766 255.077 78.496 254.467 C 76.598 254.302 78.953 250.577 79.399 249.841 C 80.336 248.27 81.159 246.634 82.097 245.063 L 82.371 244.661 C 82.737 244.121 83.228 243.625 83.64 243.117 C 84.177 242.458 84.703 241.795 85.229 241.134 C 85.538 240.75 85.835 240.357 86.143 239.975 C 87.71 237.988 89.253 235.993 90.808 233.994 C 92.077 232.338 93.368 230.695 94.671 229.061 C 97.872 225.067 101.199 221.158 104.856 217.517 C 113.865 208.557 124.005 200.562 134.876 193.506 C 154.333 180.876 175.985 171.215 198.253 163.23 C 202.667 161.645 207.123 160.146 211.652 158.873 C 216.991 157.384 222.443 156.205 227.998 155.656 C 228.295 155.627 228.605 155.605 228.902 155.584 C 231.337 155.366 233.771 155.284 236.229 155.356 C 237.601 155.409 238.973 155.491 240.333 155.637 C 240.812 155.688 241.191 155.833 241.614 156.029 C 242.012 156.215 242.472 156.256 242.916 156.36 C 244.104 156.629 245.236 157.063 246.346 157.508 C 246.849 157.714 247.362 157.963 247.878 158.128 C 248.403 158.304 248.964 158.377 249.467 158.604 L 249.922 158.926 C 250.072 159.144 250.037 159.432 249.981 159.691 Z " fill="rgb(204,204,204)"/><path d=" M 130.116 197.804 C 120.964 206.358 111.499 214.71 103.151 223.927 C 98.852 228.674 94.58 233.719 91.098 239.027 C 90.456 240.006 88.082 243.898 90.12 244.516 C 91.482 244.928 93.303 243.196 94.278 242.556 C 96.649 241.006 99.259 239.788 101.858 238.574 C 102.894 238.09 104.014 237.591 105.17 237.731 C 104.407 239.435 102.603 240.532 100.94 241.587 C 99.133 242.735 97.383 243.953 95.692 245.238 C 94.92 245.826 93.344 246.507 93.445 247.562 C 93.491 248.025 93.813 248.46 94.271 248.672 C 95.76 249.367 97.999 249.394 99.643 249.559 C 102.217 249.814 104.797 250.008 107.374 250.222 C 108.661 250.326 109.947 250.436 111.233 250.559 C 112.081 250.642 113.83 251.159 114.619 250.928 C 113.453 251.271 112.276 251.612 111.088 251.901 C 107.554 252.77 103.953 253.452 100.33 253.929 C 93.105 254.89 85.766 255.077 78.496 254.467 C 76.598 254.302 78.953 250.577 79.399 249.841 C 81.445 246.41 82.64 242.709 84.949 239.378 C 87.204 236.128 89.904 233.154 92.562 230.173 C 95.742 226.603 98.867 222.994 101.935 219.343 C 103.267 217.76 104.365 216.303 105.879 214.847 C 107.885 212.923 109.549 210.681 111.392 208.622 C 112.144 207.784 112.904 206.939 113.832 206.26 C 116.333 204.436 119.529 204.316 122.128 202.861 C 124.76 201.385 127.942 199.836 130.116 197.804 Z " fill="rgb(179,179,179)"/><path d=" M 249.981 159.691 C 249.788 160.674 249.604 161.717 249.248 162.661 C 248.919 163.528 248.689 164.428 248.266 165.278 C 247.774 166.26 247.421 167.294 246.872 168.255 C 246.3 169.269 245.706 170.264 245.11 171.268 C 244.495 172.312 243.968 173.355 243.304 174.379 C 242.561 175.497 241.796 176.603 241.007 177.69 C 238.893 180.585 236.606 183.379 234.17 186.06 C 234.671 185.509 234.744 183.871 234.909 183.167 C 235.147 182.149 235.36 181.129 235.518 180.099 C 235.83 178.079 236.561 173.942 233.409 173.461 C 229.737 172.902 225.987 173.993 222.655 175.497 C 221.458 176.035 220.084 176.643 218.851 176.18 C 218.643 176.101 218.437 175.986 218.339 175.801 C 218.155 175.462 218.402 175.07 218.649 174.764 C 219.564 173.622 220.515 172.355 221.612 171.372 C 223.026 170.109 224.543 168.965 225.87 167.616 C 227.175 166.288 228.365 164.793 228.82 163.063 C 229.071 162.104 229.063 161.015 228.423 160.215 C 227.773 159.405 226.626 159.063 225.536 158.897 C 221.853 158.334 218.116 159.216 214.474 159.972 C 208.134 161.284 201.698 162.223 195.223 162.783 C 199.034 162.121 202.361 159.991 206.133 159.163 C 208.457 158.652 210.731 158.436 212.963 157.628 C 215.471 156.723 218.033 155.925 220.659 155.342 C 227.5 153.824 233.558 154.915 240.333 155.637 C 240.812 155.688 241.191 155.833 241.614 156.029 C 242.012 156.215 242.472 156.256 242.916 156.36 C 244.104 156.629 245.236 157.063 246.346 157.508 C 246.849 157.714 247.362 157.963 247.878 158.128 C 248.403 158.304 248.964 158.377 249.467 158.604 L 249.922 158.926 C 250.072 159.144 250.037 159.432 249.981 159.691 Z " fill="rgb(179,179,179)"/><linearGradient id="_lgradient_7" x1="0" y1="0" x2="1" y2="0" gradientTransform="matrix(139.853,-125.615,138.817,126.552,65.943,251.687)" gradientUnits="userSpaceOnUse"><stop offset="0%" stop-opacity="1" style="stop-color:rgb(255,255,255)"/><stop offset="50.1984%" stop-opacity="1" style="stop-color:rgb(255,255,255)"/><stop offset="100%" stop-opacity="1" style="stop-color:rgb(230,230,230)"/></linearGradient><path d=" M 78.342 253.17 L 77.938 253.097 L 77.838 253.088 L 77.435 253.05 C 77.236 253.023 77.039 252.997 76.843 252.958 C 75.415 252.682 74.089 251.899 72.856 251.312 C 71.867 250.844 29.153 229.002 26.331 227.08 C 26.231 227.011 26.131 226.942 26.033 226.87 C 26.132 226.94 26.233 227.009 26.334 227.076 C 29.156 228.998 71.866 250.846 72.86 251.31 C 73.26 251.499 73.66 251.714 74.083 251.911 L 78.667 253.07 C 78.667 253.07 82.505 231.668 94.984 206.731 L 99.536 209.11 C 101.148 209.951 102.936 210.365 104.713 210.365 C 107.199 210.365 109.665 209.555 111.601 207.976 C 111.977 207.67 112.355 207.368 112.734 207.068 C 113.5 206.458 114.288 205.836 115.065 205.238 C 125.914 196.868 137.688 189.11 150.081 182.202 C 165.102 173.81 176.795 168.039 188.022 163.467 C 194.161 160.964 200.38 158.946 205.66 157.3 C 206.907 156.908 208.153 156.504 209.376 156.111 C 211.665 155.368 213.993 154.617 216.39 153.942 C 217.448 153.646 217.609 152.353 216.648 151.853 L 182.609 134.074 C 182.134 133.824 181.631 133.626 181.111 133.479 C 185.954 132.361 191.022 131.508 196.311 130.955 C 195.849 130.774 195.375 130.635 194.893 130.517 C 195.251 130.604 195.607 130.704 195.953 130.823 C 196.008 130.843 196.064 130.861 196.118 130.882 L 196.118 130.882 C 196.183 130.906 196.248 130.929 196.311 130.955 C 196.536 131.043 200.753 133.269 206.748 136.429 L 206.748 136.429 C 216.137 141.376 229.884 148.614 239.494 153.516 L 239.494 153.516 C 244.477 156.058 248.349 157.971 249.918 158.61 C 250.191 158.722 250.395 158.795 250.523 158.826 C 250.291 158.769 250.059 158.714 249.827 158.659 C 249.645 158.614 249.461 158.571 249.279 158.528 C 243.326 157.11 237.27 155.77 231.161 155.77 C 230.253 155.77 229.345 155.799 228.436 155.862 C 227.385 155.935 226.336 156.054 225.295 156.213 C 218.942 157.18 213.193 159.332 207.149 161.211 C 201.323 163.024 195.544 164.934 189.899 167.235 C 177.029 172.48 164.489 179.016 152.482 185.721 C 141.731 191.723 131.418 198.369 121.664 205.634 C 120.446 206.54 119.237 207.456 118.037 208.382 C 117.269 208.977 116.506 209.575 115.748 210.177 C 109.082 215.477 103.183 221.525 97.803 227.898 C 93.613 232.862 89.725 238.031 85.968 243.268 C 84.087 245.891 82.238 248.531 80.4 251.177 C 80.131 251.563 79.873 251.96 79.555 252.317 C 79.26 252.644 78.858 253.148 78.342 253.17 Z  M 25.478 226.373 C 25.402 226.285 25.335 226.193 25.278 226.093 C 25.187 225.932 25.129 225.765 25.098 225.597 C 25.13 225.765 25.189 225.932 25.281 226.093 C 25.337 226.193 25.403 226.285 25.478 226.373 Z  M 25.918 223.233 C 25.977 223.149 26.036 223.066 26.096 222.986 C 26.515 222.413 26.939 221.844 27.367 221.277 C 26.938 221.846 26.514 222.415 26.093 222.99 C 26.035 223.068 25.976 223.151 25.918 223.233 Z  M 44.815 200.393 C 45.391 199.726 45.966 199.061 46.539 198.394 C 46.709 198.196 46.88 197.998 47.05 197.8 C 51.963 192.127 57.197 186.743 62.795 181.603 C 57.006 186.921 51.603 192.502 46.545 198.39 C 45.97 199.057 45.393 199.726 44.815 200.393 Z  M 68.95 176.143 C 74.612 171.215 80.371 166.378 86.491 161.927 C 86.495 161.925 86.498 161.923 86.501 161.921 C 86.537 161.894 86.573 161.868 86.609 161.843 C 88.898 160.182 91.237 158.577 93.623 157.029 C 91.239 158.575 88.9 160.182 86.612 161.843 C 80.451 166.313 74.653 171.184 68.95 176.143 Z  M 111.531 146.937 C 112.704 146.366 113.883 145.811 115.071 145.266 C 117.027 144.37 119.003 143.508 120.997 142.683 C 138.819 135.305 158.928 129.046 178.922 129.046 C 183.236 129.046 187.545 129.336 191.822 129.97 C 187.547 129.338 183.24 129.046 178.93 129.046 C 158.932 129.046 138.819 135.305 120.999 142.685 C 117.794 144.011 114.635 145.429 111.531 146.937 Z " fill-rule="evenodd" fill="url(#_lgradient_7)"/><path d=" M 216.648 151.853 C 217.609 152.353 217.448 153.646 216.39 153.942 C 213.993 154.617 211.665 155.368 209.376 156.111 C 208.153 156.504 206.907 156.908 205.66 157.3 C 200.38 158.946 194.161 160.964 188.022 163.467 C 176.795 168.039 165.102 173.81 150.081 182.202 C 137.688 189.11 125.914 196.868 115.065 205.238 C 114.288 205.836 113.5 206.458 112.734 207.068 C 112.355 207.368 111.977 207.67 111.601 207.976 C 108.282 210.683 103.404 211.13 99.536 209.11 L 65.101 191.121 C 63.113 190.081 62.724 187.627 64.313 186.131 C 65.974 184.565 67.669 183.026 69.385 181.517 C 75.615 176.044 82.302 170.274 89.47 165.07 C 99.655 157.675 110.904 151.415 122.895 146.451 C 144.456 137.522 162.781 133.179 178.922 133.179 C 180.216 133.179 181.488 133.487 182.609 134.074 L 216.648 151.853 Z " fill="rgb(181,211,255)"/><path d=" M 172.967 156.468 C 173.401 156.694 173.327 157.275 172.852 157.408 C 171.773 157.712 170.724 158.049 169.694 158.385 C 169.143 158.563 168.582 158.744 168.02 158.922 C 165.643 159.662 162.843 160.568 160.08 161.698 C 155.025 163.753 149.761 166.354 142.998 170.13 C 137.419 173.241 132.118 176.735 127.234 180.503 C 126.884 180.772 126.528 181.052 126.184 181.325 L 125.674 181.735 C 124.179 182.955 121.984 183.155 120.242 182.245 L 104.739 174.146 C 103.844 173.679 103.669 172.574 104.384 171.902 C 105.133 171.196 105.895 170.503 106.667 169.822 C 109.472 167.359 112.484 164.762 115.71 162.42 C 120.296 159.087 125.361 156.27 130.76 154.034 C 140.466 150.015 148.716 148.059 155.982 148.059 C 156.566 148.059 157.138 148.2 157.643 148.461 L 172.967 156.468 Z " fill="rgb(4,167,234)"/><path d=" M 26.033 226.87 C 25.828 226.721 25.635 226.56 25.478 226.373 C 25.636 226.56 25.829 226.721 26.033 226.87 Z  M 25.098 225.597 C 24.952 224.812 25.407 223.963 25.918 223.233 C 25.409 223.963 24.955 224.812 25.098 225.597 Z  M 27.367 221.277 C 31.899 215.267 36.883 209.516 41.857 203.798 L 41.859 203.798 C 36.888 209.518 31.9 215.269 27.367 221.277 Z " fill="rgb(148,148,148)"/><linearGradient id="_lgradient_8" x1="0" y1="0" x2="1" y2="0" gradientTransform="matrix(103.115,0,0,93.308,5.98,191.811)" gradientUnits="userSpaceOnUse"><stop offset="0%" stop-opacity="1" style="stop-color:rgb(239,245,255)"/><stop offset="100%" stop-opacity="1" style="stop-color:rgb(224,237,255)"/></linearGradient><path d=" M 41.859 203.798 L 41.857 203.798 C 42.623 202.915 43.39 202.035 44.154 201.156 L 44.154 201.156 C 43.391 202.037 42.626 202.917 41.859 203.798 Z " fill="url(#_lgradient_8)"/><path d=" M 44.154 201.156 L 44.154 201.156 C 44.375 200.901 44.595 200.648 44.815 200.393 C 44.595 200.648 44.374 200.901 44.154 201.156 Z " fill="rgb(239,245,255)"/><path d=" M 68.935 176.154 L 68.935 176.154 C 68.938 176.152 68.942 176.148 68.945 176.146 L 68.945 176.146 C 68.942 176.148 68.939 176.152 68.935 176.154 Z " fill="rgb(148,148,148)"/><path d=" M 68.945 176.146 L 68.945 176.146 C 68.947 176.144 68.949 176.143 68.95 176.143 C 68.949 176.143 68.947 176.144 68.945 176.146 Z " fill="rgb(232,242,255)"/><path d=" M 64.275 180.258 L 64.275 180.256 C 64.91 179.685 65.55 179.114 66.195 178.547 C 67.107 177.749 68.019 176.951 68.935 176.154 L 68.935 176.154 C 68.021 176.951 67.11 177.747 66.2 178.545 C 65.553 179.114 64.912 179.683 64.275 180.258 Z " fill="rgb(239,245,255)"/><path d=" M 62.795 181.603 C 63.285 181.152 63.779 180.703 64.275 180.256 L 64.275 180.258 C 63.779 180.703 63.285 181.152 62.795 181.603 Z " fill="rgb(249,249,249)"/><path d=" M 110.774 147.308 L 110.774 147.308 C 111.027 147.182 111.278 147.061 111.531 146.937 C 111.279 147.061 111.026 147.184 110.774 147.308 Z " fill="rgb(209,228,255)"/><path d=" M 93.623 157.029 C 99.111 153.473 104.843 150.225 110.774 147.308 L 110.774 147.308 C 104.844 150.227 99.111 153.473 93.623 157.029 Z " fill="rgb(224,237,255)"/><path d=" M 194.893 130.517 C 194.234 130.358 193.56 130.245 192.89 130.137 C 192.535 130.078 192.177 130.023 191.822 129.97 C 192.179 130.023 192.535 130.078 192.89 130.137 C 193.565 130.245 194.237 130.358 194.893 130.517 Z " fill="rgb(148,148,148)"/><linearGradient id="_lgradient_9" x1="0" y1="0" x2="1" y2="0" gradientTransform="matrix(139.853,-125.615,138.817,126.552,65.943,251.687)" gradientUnits="userSpaceOnUse"><stop offset="0.7968000000000027%" stop-opacity="1" style="stop-color:rgb(245,245,245)"/><stop offset="50.1984%" stop-opacity="1" style="stop-color:rgb(255,255,255)"/><stop offset="50.1984%" stop-opacity="1" style="stop-color:rgb(255,255,255)"/><stop offset="100%" stop-opacity="1" style="stop-color:rgb(245,245,245)"/></linearGradient><path d=" M 78.667 253.07 L 74.083 251.911 C 73.66 251.714 73.26 251.499 72.86 251.31 C 71.866 250.846 29.156 228.998 26.334 227.076 C 26.233 227.009 26.132 226.94 26.033 226.87 C 25.829 226.721 25.636 226.56 25.478 226.373 C 25.403 226.285 25.337 226.193 25.281 226.093 C 25.189 225.932 25.13 225.765 25.098 225.597 C 24.955 224.812 25.409 223.963 25.918 223.233 C 25.976 223.151 26.035 223.068 26.093 222.99 C 26.514 222.415 26.938 221.846 27.367 221.277 C 31.9 215.269 36.888 209.518 41.859 203.798 C 42.626 202.917 43.391 202.037 44.154 201.156 C 44.374 200.901 44.595 200.648 44.815 200.393 C 45.393 199.726 45.97 199.057 46.545 198.39 C 51.603 192.502 57.006 186.921 62.795 181.603 C 63.285 181.152 63.779 180.703 64.275 180.258 C 64.912 179.683 65.553 179.114 66.2 178.545 C 67.11 177.747 68.021 176.951 68.935 176.154 C 68.939 176.152 68.942 176.148 68.945 176.146 C 68.947 176.144 68.949 176.143 68.95 176.143 C 74.653 171.184 80.451 166.313 86.612 161.843 C 88.9 160.182 91.239 158.575 93.623 157.029 C 99.111 153.473 104.844 150.227 110.774 147.308 C 111.026 147.184 111.279 147.061 111.531 146.937 C 114.635 145.429 117.794 144.011 120.999 142.685 C 138.819 135.305 158.932 129.046 178.93 129.046 C 183.24 129.046 187.547 129.338 191.822 129.97 C 192.177 130.023 192.535 130.078 192.89 130.137 C 193.56 130.245 194.234 130.358 194.893 130.517 C 195.375 130.635 195.849 130.774 196.311 130.955 C 191.022 131.508 185.954 132.361 181.111 133.479 C 180.407 133.281 179.667 133.179 178.922 133.179 C 162.781 133.179 144.456 137.522 122.895 146.451 C 110.904 151.415 99.655 157.675 89.47 165.07 C 82.302 170.274 75.615 176.044 69.385 181.517 C 67.669 183.026 65.974 184.565 64.313 186.131 C 62.724 187.627 63.113 190.081 65.101 191.121 L 94.984 206.731 C 82.505 231.668 78.667 253.07 78.667 253.07 Z " fill="url(#_lgradient_9)"/><path d=" M 94.984 206.731 L 65.101 191.121 C 63.113 190.081 62.724 187.627 64.313 186.131 C 65.974 184.565 67.669 183.026 69.385 181.517 C 75.615 176.044 82.302 170.274 89.47 165.07 C 99.655 157.675 110.904 151.415 122.895 146.451 C 144.456 137.522 162.781 133.179 178.922 133.179 C 179.667 133.179 180.407 133.281 181.111 133.479 C 166.529 136.843 153.938 142.604 143.07 149.84 C 139.235 150.823 135.146 152.218 130.76 154.034 C 125.361 156.27 120.296 159.087 115.71 162.42 C 112.484 164.762 109.472 167.359 106.667 169.822 C 105.895 170.503 105.133 171.196 104.384 171.902 C 103.669 172.574 103.844 173.679 104.739 174.146 L 112.759 178.336 C 105.471 187.676 99.629 197.449 94.984 206.731 Z " fill="rgb(224,237,255)"/><path d=" M 112.759 178.336 L 104.739 174.146 C 103.844 173.679 103.669 172.574 104.384 171.902 C 105.133 171.196 105.895 170.503 106.667 169.822 C 109.472 167.359 112.484 164.762 115.71 162.42 C 120.296 159.087 125.361 156.27 130.76 154.034 C 135.146 152.218 139.235 150.823 143.07 149.84 C 130.918 157.932 120.929 167.863 112.759 178.336 Z " fill="rgb(150,218,246)"/><path d=" M 68.254 258.513 L 14.62 230.524 L 25.032 225.085 L 78.666 253.074 L 68.254 258.513 Z " fill="rgb(242,242,242)"/><path d=" M 14.62 230.524 L 14.62 232.011 L 68.254 260 L 68.254 258.513 L 14.62 230.524 Z " fill="rgb(230,230,230)"/><path d=" M 78.666 253.074 L 78.666 254.559 L 68.254 260 L 68.254 258.513 L 78.666 253.074 Z " fill="rgb(204,204,204)"/></g></g></svg>