<?xml version="1.0" encoding="UTF-8" standalone="no"?><!-- Generator: Gravit.io --><svg xmlns="http://www.w3.org/2000/svg" xmlns:xlink="http://www.w3.org/1999/xlink" style="isolation:isolate" viewBox="0 0 860 700" width="860pt" height="700pt"><defs><clipPath id="_clipPath_KTMmPCpa7KFYnhi6zwfRB2m4PcxIVIgv"><rect width="860" height="700"/></clipPath></defs><g clip-path="url(#_clipPath_KTMmPCpa7KFYnhi6zwfRB2m4PcxIVIgv)"><rect width="860" height="700" style="fill:rgb(0,0,0)" fill-opacity="0"/><g><path d=" M 449.733 282.132 C 451.363 302.734 455.053 321.034 459.758 336.996 C 461.978 344.53 459.382 347.151 456.906 348.852 C 446.998 355.659 436.598 361.521 431.372 363.538 C 429.338 364.033 427.075 366.315 425.041 366.81 C 428.388 344.007 431.962 319.415 435.308 296.612 C 440.116 291.785 444.925 286.959 449.733 282.132 Z " fill-rule="evenodd" fill="rgb(14,27,65)"/><path d=" M 561.405 195.936 C 575.093 180.959 581.863 169.01 586.884 151.713 C 594.702 124.77 595.646 96.125 597.225 68.069 C 597.99 54.465 599.051 39.893 593.88 27.334 C 588.393 14.013 578.62 5.609 568.784 5.246 C 568.742 5.216 568.7 5.187 568.658 5.157 C 573.387 5.2 578.097 5.23 582.777 5.246 C 592.613 5.609 608.121 14.959 613.609 28.281 C 618.779 40.839 618.979 54.466 618.214 68.069 C 616.636 96.125 616.298 121.195 608.48 148.137 C 605.545 158.254 598.662 169.496 591.516 178.252 C 581.612 190.39 561.3 195.969 561.405 195.936 Z " fill-rule="evenodd" fill="rgb(14,27,65)"/><path d=" M 256.081 652.499 C 260.212 665.318 264.342 678.136 268.473 690.955 C 270.893 695.241 278.127 699.909 289.889 699.909 C 328.336 700.731 364.037 695.938 397.941 687.472 C 410.711 683.974 418.87 682.083 418.87 667.074 C 418.197 635.226 417.523 603.378 416.849 571.53 C 388.238 578.501 359.627 585.476 331.017 592.447 C 307.735 607.786 284.454 623.128 261.172 638.467 C 259.475 643.144 257.778 647.822 256.081 652.499 Z " fill-rule="evenodd" fill="rgb(14,27,65)"/><path d=" M 266.345 308.346 C 268.26 317.505 273.98 332.462 272.339 342.944 C 265.862 384.305 247.032 435.87 244.961 465.455 C 241.033 521.541 247.999 577.909 251.957 633.989 C 252.545 642.326 257.748 666.035 267.696 666.035 C 290.654 666.035 313.666 667.722 336.525 665.705 C 351.548 664.383 360.057 661.887 375.73 656.586 C 383.339 654.011 394.84 643.603 399.799 629.635 C 403.6 618.515 407.402 607.395 411.203 596.272 C 416.326 581.287 416.568 582.958 417.648 553.793 C 419.234 510.995 418.318 480.433 420.745 436.564 C 423.427 388.075 438.105 335.649 448.358 287.521 C 458.333 240.7 517.28 204.545 561.405 195.936 C 575.093 180.959 581.863 169.01 586.884 151.713 C 594.702 124.77 595.646 96.125 597.225 68.069 C 597.99 54.465 599.051 39.893 593.88 27.334 C 588.393 14.013 578.62 5.609 568.784 5.246 C 509.868 5.045 444.503 2.592 385.586 2.391 C 342.088 92.767 307.927 185.405 264.429 275.78 C 265.987 287.612 264.787 296.518 266.345 308.346 Z " fill-rule="evenodd" fill="rgb(242,242,242)"/><path d=" M 380.641 1.76 C 413.646 4.984 415.464 23.276 413.766 43.887 C 405.677 142.068 370.635 253.006 323.44 295.28 C 313.922 303.807 298.572 313.864 286.387 316.427 C 265.427 320.838 256.651 291.15 251.59 277.818 C 255.779 276.028 289.584 287.322 293.285 283.424 C 334.591 239.933 365.25 131.28 379.981 42.13 C 383.002 23.853 360.173 5.501 336.084 0.22 C 346.091 -0.557 371.884 0.905 380.641 1.76 Z " fill-rule="evenodd" fill="rgb(14,27,65)"/><path d=" M 349.333 0.775 C 378.239 4.615 383.216 22.554 379.981 42.13 C 365.25 131.28 334.591 239.933 293.285 283.424 C 282.135 295.164 266.224 296.79 260.887 291.663 C 249.09 280.338 244.292 258.08 243.091 237.404 C 239.277 171.72 241.041 108.114 260.27 45.319 C 265.829 27.166 284.082 16.239 299.064 9.326 C 314.258 2.316 332.803 -1.421 349.333 0.775 Z " fill-rule="evenodd" fill="rgb(42,47,74)"/><path d=" M 263.323 205.381 L 268.494 208.024 C 268.564 215.642 270.199 221.292 272.905 225.593 C 268.038 231.346 262.635 237.306 257.768 243.059 C 256.665 244.131 250.52 240.807 250.454 240.508 L 264.996 222.483 C 261.913 219.28 262.364 211.554 263.323 205.381 Z " fill-rule="evenodd" fill="rgb(135,103,0)"/><path d=" M 300.941 237.789 C 302.426 238.491 303.912 239.194 305.398 239.897 C 306.094 240.227 307.521 240.945 308.288 239.588 C 312.353 230.377 316.702 220.416 320.767 211.207 C 321.445 209.671 321.375 208.171 319.818 207.425 C 318.784 206.929 316.671 206.037 315.515 205.743 C 315.494 206.202 316.146 208.16 315.9 208.719 C 311.877 217.832 304.97 228.66 300.941 237.789 Z " fill-rule="evenodd" fill="rgb(135,103,0)"/><path d=" M 294.111 189.523 C 296.88 191.12 299.773 198.932 296.858 206.392 C 294.471 212.501 288.09 215.697 284.391 216.056 C 282.081 216.28 278.207 214.195 276.306 212.957 C 280.385 212.499 288.844 209.279 291.061 203.605 C 293.278 197.931 290.291 189.997 288.315 186.736 C 289.886 187.124 291.343 187.927 294.111 189.523 Z " fill-rule="evenodd" fill="rgb(135,103,0)"/><path d=" M 276.674 227.68 C 278.822 227.771 282.376 228.764 283.516 229.464 C 284.869 230.295 286.005 231.367 286.863 232.885 C 290.657 239.063 294.452 245.24 298.247 251.417 C 298.804 252.324 298.806 253.607 298.087 254.881 C 294.526 261.193 287.762 263.255 281.096 264.526 C 276.859 265.332 268.788 264.272 264.73 262.742 C 266.942 262.907 274.634 263.741 276.228 263.438 C 282.894 262.167 289.659 260.102 293.22 253.794 C 293.939 252.52 293.937 251.237 293.379 250.329 C 289.585 244.152 285.79 237.975 281.995 231.795 C 281.331 230.619 277.644 228.413 276.674 227.68 Z " fill-rule="evenodd" fill="rgb(135,103,0)"/><path d=" M 281.38 40.058 C 306.175 37.806 330.969 35.554 355.764 33.302 C 358.805 33.174 359.868 34.368 359.411 36.417 C 352.344 78.68 345.277 120.944 338.21 163.208 C 337.949 165.195 336.85 165.862 335.144 165.906 C 310.918 167.172 286.692 168.438 262.467 169.703 C 252.023 170.037 252.306 169.456 254.273 158.392 C 260.73 121.544 267.187 84.696 273.644 47.847 C 274.413 43.883 275.479 40.878 281.38 40.058 Z " fill-rule="evenodd" fill="rgb(42,47,74)"/><path d=" M 284.488 48.109 L 356.041 40.73 L 335.956 163.592 L 263.148 167.441 L 284.488 48.109 Z " fill-rule="evenodd" fill="rgb(14,27,65)"/><path d=" M 285.791 49.826 L 355.149 42.674 L 335.68 161.766 L 265.105 165.498 L 285.791 49.826 Z " fill-rule="evenodd" fill="rgb(0,0,0)"/><path d=" M 333.288 161.893 L 285.243 52.891 L 281.38 74.493 L 320.208 162.585 L 333.288 161.893 Z  M 289.212 49.473 L 302.014 48.153 L 340.12 134.605 L 336.499 156.756 L 289.212 49.473 L 289.212 49.473 Z " fill-rule="evenodd" fill="rgb(0,10,10)"/><path d=" M 247.808 209.579 C 252.98 208.18 258.151 206.78 263.323 205.381 C 263.392 212.999 265.027 218.648 267.734 222.951 C 262.866 228.703 257.999 234.456 253.132 240.208 C 251.861 241.442 250.245 240.981 249.938 239.585 C 247.721 231.074 246.678 222.028 246.287 212.688 C 246.034 211.302 246.693 209.935 247.808 209.579 Z " fill-rule="evenodd" fill="rgb(255,193,0)"/><path d=" M 301.168 204.392 C 298.52 209.354 295.36 214.267 292.361 217.926 C 290.193 220.571 291.129 221.723 291.533 222.398 C 294.532 227.402 297.531 232.406 300.53 237.41 C 300.914 238.088 302.654 238.458 303.42 237.098 C 307.486 227.891 311.835 217.928 315.9 208.719 C 316.577 207.183 316.603 205.916 314.875 205.52 C 311.548 204.757 307.962 203.765 304.525 202.904 C 301.906 202.249 302.08 202.683 301.168 204.392 Z " fill-rule="evenodd" fill="rgb(255,193,0)"/><path d=" M 288.315 186.736 C 292.549 188.465 293.977 196.145 291.061 203.605 C 288.146 211.065 280.839 214.82 276.606 213.091 C 272.372 211.363 271.303 203.914 274.218 196.454 C 277.133 188.993 284.082 185.008 288.315 186.736 Z " fill-rule="evenodd" fill="rgb(255,193,0)"/><path d=" M 271.576 230.319 C 273.815 227.252 276.658 227.154 278.649 228.376 C 280.002 229.204 281.138 230.28 281.995 231.795 C 285.79 237.975 289.585 244.152 293.379 250.329 C 293.937 251.237 293.939 252.52 293.22 253.794 C 289.659 260.102 282.894 262.167 276.228 263.438 C 274.256 263.814 269.292 263.719 267.567 263.435 C 262.538 262.604 259.279 260.124 256.298 257.429 C 253.75 255.129 253.839 252.059 255.936 249.489 C 261.149 243.098 266.363 236.71 271.576 230.319 Z " fill-rule="evenodd" fill="rgb(255,193,0)"/></g></g></svg>