<?xml version="1.0" encoding="UTF-8" standalone="no"?><!-- Generator: Gravit.io --><svg xmlns="http://www.w3.org/2000/svg" xmlns:xlink="http://www.w3.org/1999/xlink" style="isolation:isolate" viewBox="0 0 860 700" width="860pt" height="700pt"><defs><clipPath id="_clipPath_akyL3COlJvrWWf6NUIIIK7K5Q7MZcotY"><rect width="860" height="700"/></clipPath></defs><g clip-path="url(#_clipPath_akyL3COlJvrWWf6NUIIIK7K5Q7MZcotY)"><rect width="860" height="700" style="fill:rgb(0,0,0)" fill-opacity="0"/><path d=" M 436.905 216.536 L 438.38 221.929 L 438.966 221.768 L 437.49 216.376 L 436.905 216.536 Z " fill="rgb(231,170,119)"/><path d=" M 437.683 221.888 L 438.235 222.137 L 440.528 217.038 L 439.975 216.79 L 437.683 221.888 Z " fill="rgb(231,170,119)"/><path d=" M 438.247 222.077 L 438.851 222.137 L 439.4 216.574 L 438.797 216.514 L 438.247 222.077 Z " fill="rgb(231,170,119)"/><g><circle vector-effect="non-scaling-stroke" cx="430" cy="350" r="342.5000000000001" fill="rgb(244,244,255)"/><path d=" M 430 600.757 C 291.509 600.757 179.241 488.488 179.241 350.003 C 179.241 211.512 291.509 99.243 430 99.243 C 568.485 99.243 680.759 211.512 680.759 350.003 C 680.759 488.488 568.485 600.757 430 600.757 Z  M 430 180.61 C 336.451 180.61 260.613 256.448 260.613 350.003 C 260.613 443.552 336.451 519.39 430 519.39 C 523.549 519.39 599.387 443.552 599.387 350.003 C 599.387 256.448 523.549 180.61 430 180.61 Z " fill="rgb(242,251,255)"/><path d=" M 430 519.39 C 336.451 519.39 260.613 443.552 260.613 350.003 C 260.613 256.448 336.451 180.61 430 180.61 C 523.549 180.61 599.387 256.448 599.387 350.003 C 599.387 443.552 523.549 519.39 430 519.39 Z " fill="rgb(181,211,255)"/><path d=" M 429.978 229.344 C 379.146 229.344 337.92 275.354 337.92 332.132 C 337.92 371.676 357.922 405.964 387.229 423.177 L 387.229 431.342 C 387.229 444.281 397.701 454.769 410.639 454.769 L 429.978 454.769 L 446.818 454.769 C 459.68 454.769 470.19 444.281 470.19 431.342 L 470.19 424.646 C 500.9 407.976 522.086 372.827 522.086 332.132 C 522.086 275.354 480.854 229.344 429.978 229.344 Z " fill="rgb(4,167,234)"/><path d=" M 415.407 350.633 C 411.341 347.92 406.42 348.677 400.792 352.962 C 388.089 362.552 387.075 369.681 388.401 373.945 C 390.396 380.192 398.211 382.85 404.502 382.225 C 409.894 381.661 413.489 378.806 414.113 374.526 C 415.089 367.807 413.215 362.574 409.154 360.502 C 405.088 358.431 399.893 360.36 396.26 365.308 L 398.874 367.769 C 401.531 364.174 405.088 362.667 407.746 364.015 C 410.327 365.308 411.456 369.018 410.716 373.923 C 410.206 377.496 405.598 378.241 404.189 378.395 C 399.148 378.904 392.977 376.718 391.645 372.652 C 390.319 368.492 394.385 362.492 402.704 356.146 C 407.203 352.743 410.793 352.019 413.609 353.932 C 425.797 362.196 423.654 415.111 421.775 434.822 L 425.172 435.228 C 425.49 432.241 431.973 361.829 415.407 350.633 Z " fill="rgb(254,254,254)"/><path d=" M 458.463 352.962 C 452.841 348.677 447.914 347.92 443.892 350.633 C 427.287 361.829 433.77 432.241 434.044 435.228 L 437.48 434.822 C 435.606 415.111 433.42 362.196 445.607 353.932 C 448.5 352.019 452.019 352.743 456.512 356.146 C 464.875 362.492 468.935 368.492 467.609 372.652 C 466.283 376.718 460.069 378.904 455.066 378.395 C 453.657 378.241 449.048 377.496 448.5 373.923 C 447.799 369.018 448.933 365.308 451.514 364.015 C 454.167 362.667 457.762 364.174 460.381 367.769 L 462.995 365.308 C 459.362 360.36 454.211 358.431 450.106 360.502 C 446.04 362.574 444.166 367.807 445.103 374.526 C 445.728 378.806 449.361 381.661 454.753 382.225 C 461.044 382.85 468.864 380.192 470.853 373.945 C 472.18 369.681 471.127 362.552 458.463 352.962 Z " fill="rgb(254,254,254)"/><path d=" M 463.587 423.55 L 392.977 423.55 C 387.662 423.55 386.056 427.419 385.782 432.636 L 471.204 432.636 C 471.127 426.947 469.527 423.55 463.587 423.55 Z " fill="rgb(138,137,137)"/><path d=" M 405.247 470.908 C 406.847 477.413 412.711 482.224 419.703 482.224 L 438.697 482.224 C 445.843 482.224 451.783 477.237 453.23 470.596 C 459.482 469.111 464.76 463.559 467.571 457.131 L 388.955 457.131 C 392.035 464.222 398.128 470.245 405.247 470.908 Z " fill="rgb(138,137,137)"/><path d=" M 386.719 449.103 L 386.763 449.103 L 386.763 447.267 C 386.763 447.87 386.801 448.478 386.84 449.103 L 469.642 449.103 C 469.719 448.478 469.757 447.87 469.757 447.267 L 469.757 449.103 L 469.916 449.103 C 470.146 446.078 470.426 443.261 470.7 440.642 L 386.018 440.642 C 386.292 443.513 386.609 446.423 386.719 449.103 Z " fill="rgb(138,137,137)"/><path d=" M 386.018 440.642 L 470.7 440.642 C 471.007 437.633 471.242 434.943 471.204 432.636 L 385.782 432.636 C 385.667 435.074 385.82 437.847 386.018 440.642 Z " fill="rgb(254,254,254)"/><path d=" M 388.955 457.131 L 467.571 457.131 C 468.661 454.534 469.407 451.821 469.642 449.103 L 386.84 449.103 C 387.114 451.821 387.82 454.534 388.955 457.131 Z " fill="rgb(254,254,254)"/><path d=" M 386.763 451.174 L 386.763 449.103 L 386.719 449.103 C 386.763 449.826 386.763 450.506 386.763 451.174 Z " fill="rgb(241,180,77)"/><path d=" M 469.757 451.174 C 469.796 450.473 469.872 449.788 469.916 449.103 L 469.757 449.103 L 469.757 451.174 Z " fill="rgb(241,180,77)"/><path d=" M 380.159 279.064 C 373.633 279.064 368.317 284.341 368.317 290.868 C 368.317 297.395 373.633 302.688 380.159 302.688 C 386.648 302.688 391.958 297.395 391.958 290.868 C 391.958 284.341 386.648 279.064 380.159 279.064 Z " fill="rgb(254,254,254)"/></g></g></svg>