<?xml version="1.0" encoding="UTF-8" standalone="no"?><!-- Generator: Gravit.io --><svg xmlns="http://www.w3.org/2000/svg" xmlns:xlink="http://www.w3.org/1999/xlink" style="isolation:isolate" viewBox="0 0 860 700" width="860pt" height="700pt"><defs><clipPath id="_clipPath_qhipqpavBqZHsiOxzahym8e6OBkWsbPD"><rect width="860" height="700"/></clipPath></defs><g clip-path="url(#_clipPath_qhipqpavBqZHsiOxzahym8e6OBkWsbPD)"><rect width="860" height="700" style="fill:rgb(0,0,0)" fill-opacity="0"/><g><g><path d=" M 201.619 139.826 C 201.619 283.741 201.619 380.349 201.619 524.255 C 201.687 556.987 224.279 594.346 255.243 608.285 C 311.186 632.854 371.012 645.056 430.82 644.947 L 430.82 139.826 L 201.619 139.826 Z " fill="rgb(223,231,244)"/><path d=" M 430.82 139.826 L 430.82 644.947 C 490.081 644.837 549.326 632.627 604.757 608.285 C 635.721 594.346 658.313 556.987 658.381 524.255 C 658.381 380.349 658.381 283.741 658.381 139.826 L 430.82 139.826 Z " fill="rgb(207,219,240)"/><clipPath id="_clipPath_kEr3A7kRbh0vf2r6prHVSqCMWvXVxUpt"><path d=" M 626.012 139.826 L 587.797 139.826 C 592.395 133.064 596.742 125.996 600.812 118.646 L 626.012 139.826 Z  M 270.415 139.826 L 232.625 139.826 L 257.522 118.858 C 261.549 126.121 265.853 133.119 270.415 139.826 Z " fill-rule="evenodd" fill="rgb(255,255,255)"/></clipPath><g clip-path="url(#_clipPath_kEr3A7kRbh0vf2r6prHVSqCMWvXVxUpt)"><path d=" M 232.625 118.646 L 626.012 118.646 L 626.012 139.826 L 232.625 139.826 L 232.625 118.646 Z " fill="rgb(135,138,144)"/></g><path d=" M 428.832 294.056 C 416.5 294.056 404.191 292.945 391.986 290.73 C 344.967 282.175 300.669 257.301 263.883 218.792 C 245.781 199.836 229.766 177.904 216.281 153.594 L 232.625 139.826 L 270.415 139.826 C 278.283 151.41 286.917 162.133 296.229 171.878 C 325.883 202.927 361.517 222.964 399.279 229.828 C 408.956 231.589 418.76 232.458 428.571 232.458 C 429.32 232.458 430.071 232.458 430.82 232.443 L 430.82 294.049 C 430.157 294.049 429.495 294.056 428.832 294.056 Z " fill="rgb(120,128,145)"/><path d=" M 430.82 294.049 L 430.82 232.443 C 460.37 232.043 489.941 223.778 516.473 208.21 C 543.769 192.189 568.102 168.809 587.797 139.826 L 626.012 139.826 L 642.077 153.336 C 615.595 201.158 579.589 239.354 537.953 263.782 C 515.457 276.986 491.444 286.003 466.583 290.589 C 454.698 292.781 442.749 293.931 430.82 294.049 Z " fill="rgb(112,123,145)"/><path d=" M 429.179 55.052 C 303.048 55.052 200.798 93.225 200.798 140.304 L 200.837 141.697 L 200.797 142.08 C 200.797 159.887 215.712 174.327 234.111 174.327 L 430 174.327 L 430 55.06 L 429.179 55.052 Z " fill="rgb(31,56,102)"/><path d=" M 657.521 141.689 L 657.559 140.304 C 657.559 93.326 555.751 55.225 430 55.06 L 430 174.327 L 624.247 174.327 C 642.646 174.327 657.561 159.887 657.561 142.08 L 657.521 141.689 Z " fill="rgb(15,27,64)"/><path d=" M 216.641 170.085 L 191.647 170.085 L 191.647 144.742 L 216.641 144.742 L 216.641 170.085 Z " fill="rgb(45,47,52)"/><path d=" M 196.744 181.638 L 171.75 181.638 L 171.75 133.181 L 196.744 133.181 L 196.744 181.638 Z " fill="rgb(31,56,102)"/><path d=" M 643.359 144.742 L 668.353 144.742 L 668.353 170.085 L 643.359 170.085 L 643.359 144.742 Z " fill="rgb(45,47,52)"/><path d=" M 663.256 133.181 L 688.25 133.181 L 688.25 181.638 L 663.256 181.638 L 663.256 133.181 Z " fill="rgb(31,56,102)"/><path d=" M 200.798 139.834 C 200.798 151.864 200.798 163.565 200.798 174.993 L 430 174.993 L 430 139.834 L 200.798 139.834 Z " fill="rgb(181,211,255)"/><path d=" M 657.559 139.834 L 430 139.834 L 430 174.993 L 657.559 174.993 C 657.559 163.565 657.559 151.864 657.559 139.834 Z " fill="rgb(4,167,234)"/></g></g></g></svg>