<?xml version="1.0" encoding="UTF-8" standalone="no"?><!-- Generator: Gravit.io --><svg xmlns="http://www.w3.org/2000/svg" xmlns:xlink="http://www.w3.org/1999/xlink" style="isolation:isolate" viewBox="0 0 860 700" width="860pt" height="700pt"><defs><clipPath id="_clipPath_PT13bxNa0We5PuY00l0w9NalVjnhqwRi"><rect width="860" height="700"/></clipPath></defs><g clip-path="url(#_clipPath_PT13bxNa0We5PuY00l0w9NalVjnhqwRi)"><rect width="860" height="700" style="fill:rgb(0,0,0)" fill-opacity="0"/><path d=" M 430.001 658.18 C 260.071 658.18 121.82 519.927 121.82 349.996 C 121.82 180.066 260.071 41.818 430.001 41.818 C 599.933 41.818 738.179 180.066 738.179 349.996 C 738.179 519.927 599.933 658.18 430.001 658.18 Z " fill="rgb(254,254,254)"/><path d=" M 430.001 14.499 C 244.711 14.499 94.5 164.71 94.5 349.996 C 94.5 535.289 244.711 685.501 430.001 685.501 C 615.295 685.501 765.5 535.289 765.5 349.996 C 765.5 164.71 615.295 14.499 430.001 14.499 L 430.001 14.499 Z  M 430.001 69.141 C 584.866 69.141 710.857 195.132 710.857 349.996 C 710.857 504.86 584.866 630.859 430.001 630.859 C 275.133 630.859 149.143 504.86 149.143 349.996 C 149.143 195.132 275.133 69.141 430.001 69.141 Z " fill="rgb(234,54,56)"/><path d=" M 611.1 313.357 C 602.321 315.638 605.12 309.899 602.821 301.114 C 600.536 292.339 594.005 283.806 602.798 281.517 C 611.57 279.229 620.57 284.505 622.862 293.283 C 625.154 302.057 619.872 311.068 611.1 313.357 Z  M 596.657 361.341 C 602.203 362.059 606.112 367.16 605.384 372.695 C 604.672 378.226 599.573 382.154 594.042 381.422 C 588.51 380.698 595.643 378.907 596.378 373.355 C 597.12 367.831 591.125 360.627 596.657 361.341 Z  M 558.169 341.505 C 557.919 341.856 557.655 342.158 557.39 342.409 C 554.569 345.063 550.22 343.065 547.634 340.575 C 539.612 332.867 535.762 319.573 537.298 308.708 C 538.245 301.985 543.549 295.245 548.883 303.172 C 553.078 309.465 556.509 316.969 558.051 324.365 C 558.984 328.81 560.975 337.441 558.169 341.505 Z  M 555.502 383.56 C 554.599 389.763 552.835 395.928 550.867 401.861 C 548.56 408.796 546.179 417.29 540.684 422.456 C 537.9 425.085 534.175 426.545 530.319 426.014 C 519.358 424.529 518.035 414.428 521.789 405.772 C 526.484 394.935 533.955 386.631 542.22 378.438 C 544.313 376.358 549.853 369.036 553.636 370.083 C 553.915 370.162 554.194 370.292 554.459 370.467 C 557.199 372.361 555.884 380.805 555.502 383.56 Z  M 583.345 439.132 C 588.532 431.696 590.772 421.189 598.222 426.379 C 605.664 431.552 607.5 441.836 602.321 449.276 C 597.149 456.719 586.864 458.563 579.415 453.38 C 571.98 448.19 578.159 446.582 583.345 439.132 Z  M 533.433 485.004 C 537.827 481.571 538.591 472.23 542.043 476.614 C 545.496 481.005 544.725 487.386 540.332 490.826 C 535.953 494.28 529.554 493.527 526.124 489.122 C 522.678 484.735 529.026 488.448 533.433 485.004 Z  M 501.888 289.022 C 490.361 301.343 489.597 272.481 489.597 272.481 C 489.979 240.204 505.348 240.204 505.348 240.204 C 511.879 241.743 513.796 251.726 513.796 251.726 C 515.721 274.013 501.888 289.022 501.888 289.022 Z  M 511.526 384.802 C 509.146 393.68 501.807 400.861 495.746 407.451 C 490.214 413.484 480.5 423.018 471.357 420.063 C 463.913 417.659 461.169 407.852 460.707 400.876 C 460.043 390.96 463.688 380.618 469.821 372.87 C 472.167 369.918 475.984 364.868 479.732 363.479 C 507.383 353.235 512.004 376.781 512.004 376.798 C 512.437 379.597 512.217 382.266 511.526 384.802 Z  M 507.398 450.557 C 483.32 486.41 458.733 468.995 458.733 468.995 C 445.027 459.291 457.654 451.88 467.859 448.721 C 476.956 445.915 486.791 443.846 496.371 444.441 C 499.052 444.61 511.093 445.054 507.398 450.557 Z  M 488.517 525.217 C 489.458 534.224 482.872 542.341 473.853 543.282 C 464.835 544.229 456.721 537.647 455.778 528.626 C 454.849 519.604 460.107 523.226 469.137 522.286 C 478.147 521.345 487.57 516.181 488.517 525.217 Z  M 451.613 359.562 C 451.613 359.562 434.707 379.539 408.209 344.027 C 408.209 344.027 402.164 319.652 433.692 328.484 C 433.692 328.484 458.146 339.927 451.613 359.562 Z  M 436.325 456.06 C 433.792 463.998 428.121 466.495 422.593 459.865 C 416.94 453.082 415.361 441.697 418.722 433.536 C 421.538 426.681 431.726 423.424 435.514 431.072 C 438.739 437.589 438.531 449.15 436.325 456.06 Z  M 383.422 414.022 C 378.045 410.457 371.523 404.046 374.415 396.843 C 375.86 393.238 380.635 390.516 384.211 389.536 C 392.648 387.244 409.041 386.082 418.935 391.549 C 424.125 394.425 427.526 399.121 427.027 406.449 C 425.983 422.007 391.754 419.528 383.422 414.022 Z  M 406.351 519.516 C 404.636 524.828 398.904 527.737 393.598 526.018 C 388.29 524.306 385.359 518.583 387.088 513.264 C 388.82 507.967 389.276 515.307 394.592 517.04 C 399.894 518.774 408.069 514.197 406.351 519.516 Z  M 402.136 464.081 C 402.136 464.081 385.234 484.064 358.721 448.548 C 358.721 448.548 352.691 424.177 384.211 433.016 C 384.211 433.016 408.668 444.455 402.136 464.081 Z  M 345.725 338.786 C 346.267 332.626 350.431 327.626 355.202 324.032 C 358.628 321.452 365.329 315.763 369.869 316.998 C 390.987 322.762 382.546 348.496 382.546 348.496 C 381.281 352.341 374.135 357.209 370.505 358.504 C 357.272 363.235 344.559 351.865 345.725 338.786 Z  M 344.706 249.047 C 349.305 240.628 356.956 235.423 364.941 230.555 C 385.75 217.863 392.533 233.64 392.533 233.64 L 392.533 237.475 C 392.533 242.741 385.52 250.567 382.127 254.04 C 378.368 257.903 374.121 260.755 369.224 262.943 C 363.183 265.655 348.95 273.841 342.704 267.779 C 338.17 263.366 342.339 253.405 344.706 249.047 Z  M 328.381 412.271 C 316.945 406.697 307.428 394.06 303.741 382.165 C 301.356 374.463 302.159 363.379 313.932 365.388 C 318.76 366.209 323.198 369.918 326.559 373.262 C 333.267 379.912 339.645 389.666 341.054 399.207 C 344.118 419.945 328.385 412.271 328.381 412.271 Z  M 300.337 321.607 C 300.72 289.337 316.081 289.337 316.081 289.337 C 322.613 290.88 324.535 300.866 324.535 300.866 C 326.462 323.15 312.63 338.151 312.63 338.151 C 301.105 350.472 300.337 321.607 300.337 321.607 Z  M 414.443 259.46 C 420.685 261.29 424.19 263.757 425.571 267.162 C 427.048 270.816 426.066 275.552 423.397 281.708 C 419.77 290.062 414.26 297.164 406.978 302.678 C 404.21 304.769 398.961 309.805 395.023 308.539 C 389.886 306.885 388.408 294.667 387.773 290.284 C 386.962 284.678 386.112 276.377 388.308 270.896 C 393.24 258.56 402.739 256.045 414.443 259.46 Z  M 411.111 181.426 C 406.111 182.451 401.684 189.805 400.633 184.798 C 399.586 179.793 402.817 174.868 407.822 173.832 C 412.826 172.777 417.758 175.995 418.783 181.009 C 419.827 186.014 416.119 180.374 411.111 181.426 Z  M 426.607 221.103 C 432.849 213.573 445.511 218.552 451.961 222.495 C 451.975 222.502 472.049 234.791 467.827 242.087 C 466.191 244.907 453.532 243.895 451.111 243.63 C 445.981 243.056 440.805 241.55 436.476 238.69 C 431.967 235.706 421.783 226.939 426.607 221.103 Z  M 472.351 305.515 C 475.956 298.642 483.499 300.443 489.744 302.305 C 495.709 304.077 502.152 307.739 505.914 312.718 C 509.308 317.217 510.505 322.798 507.148 329.033 C 501.484 339.535 482.086 328.896 475.51 323.91 C 468.989 318.97 468.806 312.277 472.351 305.515 Z  M 469.355 170.252 C 471.457 161.011 480.701 155.203 489.943 157.313 C 499.199 159.419 505.003 168.666 502.887 177.913 C 500.764 187.143 496.789 181.784 487.533 179.679 C 478.305 177.57 467.239 179.506 469.355 170.252 Z  M 355.066 521.206 C 350.861 529.228 340.875 532.336 332.854 528.119 C 324.815 523.902 321.716 513.925 325.938 505.888 C 330.167 497.871 332.524 503.808 340.563 508.026 C 348.584 512.25 359.291 513.169 355.066 521.206 Z  M 307.493 470.444 C 303.063 473.851 296.689 473.005 293.295 468.575 C 289.884 464.156 290.716 457.778 295.153 454.388 C 299.58 450.991 295.799 457.297 299.2 461.742 C 302.586 466.171 311.909 467.036 307.493 470.444 Z  M 260.43 434.038 C 251.688 436.446 242.598 431.291 240.195 422.542 C 237.788 413.803 242.943 404.713 251.695 402.307 C 260.437 399.914 257.725 405.696 260.132 414.449 C 262.528 423.184 269.183 431.628 260.43 434.038 Z  M 257.743 367.996 C 252.162 367.903 247.706 363.271 247.803 357.69 C 247.897 352.105 252.517 347.643 258.106 347.746 C 263.691 347.858 256.789 350.433 256.681 356.029 C 256.574 361.596 263.325 368.085 257.743 367.996 Z  M 258.511 288.749 C 255.706 297.361 256.613 308.066 247.976 305.268 C 239.352 302.473 234.602 293.172 237.404 284.537 C 240.195 275.91 249.5 271.161 258.131 273.963 C 266.758 276.771 261.305 280.115 258.511 288.749 Z  M 290.637 252.228 C 287.387 256.163 288.55 264.665 284.586 261.422 C 280.637 258.179 280.066 252.322 283.309 248.365 C 286.555 244.416 292.413 243.827 296.362 247.085 C 300.312 250.335 293.891 248.261 290.637 252.228 Z  M 308.214 215.263 C 302.88 220.231 302.938 232.489 297.951 227.162 C 292.951 221.841 293.231 213.441 298.569 208.461 C 303.881 203.461 312.286 203.719 317.268 209.064 C 322.247 214.395 313.563 210.277 308.214 215.263 Z  M 352.881 181.314 C 344.229 185.153 336.534 193.342 332.678 184.668 C 328.826 176.013 332.736 165.821 341.399 161.965 C 350.058 158.109 360.257 162.019 364.105 170.693 C 367.943 179.352 361.544 177.451 352.881 181.314 Z  M 509.609 212.899 C 511.717 209.732 516.015 208.878 519.181 210.991 C 522.355 213.096 523.207 217.394 521.091 220.557 C 518.976 223.721 520.041 218.814 516.86 216.701 C 513.708 214.585 507.493 216.074 509.609 212.899 Z  M 544.732 230.296 C 548.641 226.645 554.782 226.857 558.426 230.756 C 562.085 234.659 561.879 240.803 557.971 244.444 C 554.077 248.1 557.096 241.725 553.43 237.816 C 549.794 233.916 540.831 233.952 544.732 230.296 Z  M 628.276 291.866 C 625.205 280.089 613.157 273.026 601.381 276.093 C 595.408 277.668 590.647 281.539 587.804 286.517 C 587.32 287.267 586.849 288.017 586.394 288.727 C 583.558 293.132 580.223 297.422 576.013 300.619 C 574.022 302.143 566.698 304.697 561.673 306.275 C 555.7 287.723 545.966 270.871 533.375 256.583 C 535.711 254.646 538.782 252.246 540.038 251.773 C 542.954 250.686 546.135 250.367 549.228 250.345 C 549.72 250.335 550.235 250.345 550.778 250.335 C 554.143 250.503 557.559 249.344 560.233 246.855 C 565.464 241.954 565.736 233.744 560.843 228.503 C 555.936 223.266 547.722 222.997 542.484 227.89 C 539.825 230.376 538.451 233.718 538.378 237.094 C 538.333 237.625 538.311 238.142 538.275 238.641 C 538.04 241.722 537.518 244.875 536.232 247.708 C 535.689 248.935 533.132 251.802 531.046 253.986 C 523.626 245.98 515.302 238.82 506.208 232.704 C 507.486 231.032 509.087 229.062 509.844 228.557 C 511.688 227.319 513.848 226.595 515.978 226.071 C 516.331 225.981 516.684 225.906 517.051 225.809 C 519.416 225.379 521.598 224.019 523.038 221.863 C 525.874 217.613 524.728 211.873 520.482 209.036 C 516.235 206.202 510.498 207.342 507.662 211.589 C 506.222 213.757 505.803 216.296 506.296 218.638 C 506.362 219.012 506.435 219.381 506.487 219.732 C 506.825 221.913 506.972 224.181 506.545 226.358 C 506.376 227.258 505.15 229.521 504.084 231.351 C 496.29 226.318 487.981 222.035 479.231 218.606 C 480.683 213.757 482.545 208.239 483.783 206.478 C 486.989 201.991 491.346 198.375 495.871 195.258 C 496.591 194.762 497.362 194.253 498.141 193.719 C 503.247 190.598 507.133 185.511 508.566 179.216 C 511.416 166.801 503.651 154.443 491.235 151.62 C 478.832 148.79 466.493 156.563 463.648 168.953 C 462.217 175.249 463.512 181.523 466.762 186.551 C 467.232 187.376 467.705 188.173 468.143 188.923 C 470.862 193.694 473.211 198.855 474.158 204.297 C 474.506 206.302 473.879 211.586 473.132 216.382 C 458.96 211.564 443.786 208.918 427.981 208.918 C 424.226 208.918 420.516 209.107 416.832 209.402 C 416.359 206.711 415.548 200.95 415.853 199.314 C 416.413 196.395 417.743 193.629 419.257 191.093 C 419.501 190.684 419.766 190.268 420.018 189.823 C 421.829 187.143 422.586 183.782 421.876 180.36 C 420.477 173.641 413.898 169.337 407.176 170.736 C 400.457 172.135 396.142 178.713 397.544 185.443 C 398.262 188.851 400.303 191.634 403.025 193.378 C 403.435 193.676 403.861 193.952 404.238 194.228 C 406.645 195.95 408.962 197.952 410.644 200.409 C 411.549 201.718 412.991 206.869 413.683 209.638 C 398.588 211.166 384.232 215.108 370.935 221.027 C 368.948 215.927 366.028 207.741 365.952 205.003 C 365.816 199.487 367.137 193.987 368.89 188.776 C 369.17 187.951 369.486 187.079 369.783 186.178 C 372.008 180.629 372.062 174.226 369.436 168.318 C 364.266 156.681 350.646 151.455 339.02 156.638 C 327.395 161.808 322.176 175.424 327.33 187.046 C 329.963 192.943 334.766 197.195 340.38 199.264 C 341.241 199.641 342.105 200.003 342.901 200.344 C 347.938 202.518 352.913 205.244 356.942 209.036 C 358.94 210.919 363.108 218.66 365.558 223.552 C 354.477 229.062 344.236 235.986 335.057 244.096 C 332.323 240.9 328.029 235.555 327.284 233.564 C 325.798 229.601 325.375 225.235 325.332 221.01 C 325.314 220.332 325.325 219.654 325.296 218.897 C 325.526 214.294 323.965 209.627 320.547 205.997 C 313.864 198.841 302.636 198.475 295.501 205.18 C 288.342 211.859 287.968 223.083 294.662 230.232 C 298.07 233.873 302.625 235.745 307.228 235.85 C 307.952 235.889 308.67 235.921 309.337 235.993 C 313.563 236.294 317.86 237.015 321.738 238.765 C 323.671 239.634 328.668 244.233 331.689 247.174 C 324.388 254.05 317.821 261.684 312.128 269.981 C 309.958 268.048 306.285 264.55 305.557 263.197 C 304.153 260.568 303.461 257.577 303.052 254.653 C 302.985 254.18 302.924 253.696 302.848 253.183 C 302.583 249.969 301.061 246.862 298.361 244.659 C 293.059 240.294 285.231 241.058 280.873 246.374 C 276.515 251.672 277.286 259.499 282.592 263.865 C 285.285 266.064 288.618 266.954 291.828 266.609 C 292.331 266.577 292.84 266.537 293.317 266.516 C 296.269 266.347 299.329 266.455 302.177 267.305 C 303.709 267.775 308.114 270.903 310.366 272.628 C 304.692 281.309 299.931 290.65 296.269 300.522 C 291.491 298.664 285.465 296.077 283.735 294.61 C 279.725 291.173 276.651 286.708 274.068 282.134 C 273.666 281.406 273.236 280.617 272.788 279.831 C 270.259 274.705 265.739 270.57 259.853 268.661 C 248.277 264.891 235.84 271.237 232.085 282.823 C 228.326 294.406 234.678 306.828 246.247 310.598 C 252.13 312.496 258.22 311.803 263.292 309.135 C 264.11 308.758 264.914 308.371 265.668 308.026 C 270.438 305.831 275.564 304.026 280.834 303.596 C 283.076 303.402 289.399 304.841 294.336 306.129 C 289.927 319.763 287.52 334.287 287.52 349.386 C 287.52 351.836 287.588 354.275 287.707 356.696 C 284.686 356.538 278.527 356.015 276.891 355.3 C 273.91 354.002 271.296 351.914 268.957 349.687 C 268.58 349.329 268.207 348.962 267.787 348.575 C 265.38 345.993 261.98 344.37 258.171 344.317 C 250.673 344.17 244.496 350.125 244.37 357.625 C 244.227 365.115 250.185 371.303 257.679 371.432 C 261.481 371.496 264.946 369.993 267.453 367.522 C 267.866 367.152 268.268 366.776 268.666 366.435 C 271.077 364.29 273.763 362.307 276.781 361.115 C 278.516 360.427 285.084 360.14 287.972 360.101 C 289.12 375.375 292.686 389.967 298.332 403.476 C 293.295 404.559 286.709 405.75 284.432 405.463 C 279.187 404.807 274.162 402.769 269.491 400.373 C 268.749 399.982 267.967 399.559 267.167 399.146 C 262.216 396.258 256.172 395.286 250.207 396.933 C 238.462 400.154 231.561 412.293 234.811 424.037 C 238.043 435.774 250.175 442.661 261.911 439.444 C 267.866 437.797 272.569 433.863 275.342 428.837 C 275.819 428.08 276.282 427.316 276.72 426.609 C 279.499 422.161 282.785 417.828 286.946 414.574 C 288.858 413.071 295.767 410.532 300.742 408.882 C 306.628 421.451 314.312 433.013 323.481 443.217 C 320.905 445.033 316.192 448.146 314.553 448.588 C 311.41 449.427 308.067 449.427 304.846 449.136 C 304.333 449.093 303.81 449.04 303.239 449.004 C 299.752 448.48 296.083 449.323 293.059 451.659 C 287.107 456.218 285.992 464.729 290.558 470.667 C 295.121 476.625 303.637 477.74 309.585 473.178 C 312.605 470.85 314.363 467.524 314.793 464.023 C 314.883 463.477 314.958 462.936 315.055 462.42 C 315.603 459.245 316.472 456.016 318.093 453.204 C 318.964 451.661 323.463 447.702 325.841 445.739 C 335.537 456.016 346.761 464.834 359.158 471.814 C 356.479 476.323 352.49 482.586 350.611 484.154 C 346.553 487.53 341.621 489.803 336.678 491.572 C 335.889 491.849 335.057 492.143 334.207 492.436 C 328.711 494.08 323.872 497.828 320.991 503.305 C 315.317 514.08 319.474 527.406 330.26 533.063 C 341.03 538.727 354.359 534.584 360.027 523.806 C 362.893 518.341 363.241 512.214 361.465 506.763 C 361.246 505.888 360.995 505.036 360.777 504.224 C 359.428 499.163 358.513 493.807 358.979 488.541 C 359.194 486.116 362.075 479.308 364.266 474.548 C 376.628 480.854 390.051 485.363 404.188 487.791 C 403.115 490.704 400.916 496.182 399.794 497.505 C 397.677 499.966 394.919 501.867 392.099 503.452 C 391.655 503.711 391.192 503.955 390.697 504.252 C 387.53 505.793 384.99 508.577 383.82 512.214 C 381.502 519.332 385.402 526.98 392.533 529.287 C 399.664 531.601 407.316 527.707 409.622 520.581 C 410.795 516.945 410.365 513.213 408.729 510.083 C 408.496 509.584 408.255 509.091 408.047 508.621 C 406.688 505.683 405.58 502.538 405.321 499.295 C 405.16 497.437 406.799 491.085 407.61 488.311 C 414.268 489.28 421.054 489.843 427.981 489.843 C 440.68 489.843 452.973 488.132 464.667 484.972 C 464.835 489.685 464.828 494.944 464.262 496.852 C 462.755 501.91 459.91 506.535 456.778 510.744 C 456.28 511.406 455.738 512.111 455.204 512.846 C 451.538 517.246 449.59 523.05 450.232 529.206 C 451.488 541.32 462.332 550.114 474.442 548.836 C 486.541 547.587 495.335 536.743 494.079 524.629 C 493.425 518.488 490.325 513.205 485.829 509.65 C 485.16 509.047 484.482 508.474 483.855 507.923 C 479.926 504.45 476.189 500.501 473.66 495.862 C 472.637 493.986 471.45 488.143 470.625 483.232 C 486.563 478.156 501.263 470.297 514.171 460.246 C 515.875 462.553 519.622 467.99 520.114 469.787 C 520.981 472.915 521.018 476.262 520.768 479.487 C 520.731 480 520.687 480.52 520.658 481.098 C 520.18 484.585 521.055 488.25 523.42 491.246 C 528.026 497.14 536.57 498.158 542.447 493.534 C 548.354 488.914 549.383 480.391 544.762 474.487 C 542.403 471.498 539.053 469.766 535.549 469.383 C 535.006 469.296 534.455 469.225 533.955 469.135 C 530.759 468.618 527.527 467.782 524.691 466.193 C 523.06 465.282 518.682 460.364 516.838 458.154 C 530.671 446.837 542.301 432.937 550.999 417.175 C 554.958 420.314 559.719 424.335 560.902 426.193 C 563.76 430.637 565.398 435.814 566.536 440.936 C 566.713 441.754 566.889 442.615 567.087 443.501 C 568.035 449.158 571.157 454.42 576.226 457.968 C 586.218 464.927 599.955 462.466 606.92 452.465 C 613.877 442.478 611.416 428.74 601.417 421.778 C 596.356 418.259 590.317 417.15 584.69 418.233 C 583.793 418.348 582.919 418.488 582.082 418.596 C 576.895 419.313 571.473 419.549 566.301 418.438 C 564.046 417.946 558.169 414.585 553.776 411.877 C 560.299 398.766 564.839 384.503 566.992 369.459 C 570.173 370.04 574.882 371.041 576.219 371.812 C 579.025 373.434 581.398 375.808 583.477 378.284 C 583.801 378.675 584.139 379.087 584.521 379.521 C 586.614 382.344 589.81 384.349 593.601 384.83 C 601.021 385.813 607.823 380.572 608.793 373.146 C 609.77 365.714 604.54 358.902 597.112 357.927 C 593.336 357.442 589.729 358.551 586.96 360.724 C 586.511 361.048 586.071 361.374 585.637 361.665 C 583 363.533 580.105 365.198 576.968 366.044 C 575.477 366.46 570.665 366.213 567.44 365.954 C 568.079 360.513 568.447 354.989 568.447 349.386 C 568.447 336.357 566.632 323.767 563.319 311.796 C 568.461 310.73 575.947 309.421 578.401 309.766 C 583.639 310.486 588.642 312.61 593.27 315.064 C 594.005 315.462 594.784 315.882 595.584 316.312 C 600.492 319.271 606.53 320.319 612.51 318.762 C 624.294 315.688 631.354 303.65 628.276 291.866 Z " fill="rgb(15,27,65)"/><path d=" M 648.677 95.568 L 177.765 571.198 C 189.796 584.899 202.914 597.631 217.008 609.223 L 687.077 134.448 C 675.345 120.473 662.51 107.463 648.677 95.568 Z " fill="rgb(234,54,56)"/></g></svg>